<svg xmlns="http://www.w3.org/2000/svg" width="457.74" height="461.306" viewBox="0 0 457.74 461.306"><defs><style>.a{fill:#dbdbdb;}.b{fill:#ebebeb;}.c{fill:#c7c7c7;}.d{fill:#263238;}.e{fill:#ffc727;}.f{fill:#fff;}.g{fill:#455a64;}.h{fill:#a6a6a6;}.i{fill:#f7a9a0;}.j{fill:#37474f;}.k{fill:none;stroke:#f5a79e;stroke-linecap:round;stroke-linejoin:round;stroke-width:0;}.l{fill:#ff98b9;}.m{fill:#ffc4c0;}.n{opacity:0.1;}.o{fill:#ff9cbd;}</style></defs><g transform="translate(0)"><g transform="translate(7.857)"><path class="a" d="M376.777,84.9a30.233,30.233,0,1,1-29.9-34.655V80.462Z" transform="translate(-22.498 -44.084)"/><path class="b" d="M380.033,74.852a29.391,29.391,0,0,1-.33,4.394l-29.9-4.394V44.63a30.211,30.211,0,0,1,30.233,30.222Z" transform="translate(-19.269 -44.63)"/><rect class="c" width="32.153" height="1.097" transform="translate(339.716 52.576)"/><path class="c" d="M389.768,96.087a2.809,2.809,0,1,1,1.991-.838A2.8,2.8,0,0,1,389.768,96.087Zm0-4.5a1.7,1.7,0,1,0,1.7,1.657A1.7,1.7,0,0,0,389.768,91.587Z" transform="translate(-15.649 -40.164)"/><rect class="c" width="24.965" height="1.13" transform="translate(382.284 51.434)"/><rect class="c" width="14.134" height="1.13" transform="translate(382.284 53.684)"/><rect class="b" width="7.473" height="53.146" transform="translate(134.21 184.404)"/><rect class="b" width="7.473" height="40.274" transform="translate(147.038 197.265)"/><rect class="b" width="7.473" height="20.137" transform="translate(159.877 217.402)"/><rect class="b" width="7.473" height="31.637" transform="translate(172.706 205.902)"/><rect class="b" width="7.473" height="43.72" transform="translate(185.545 193.819)"/><rect class="b" width="7.473" height="50.831" transform="translate(198.385 186.719)"/><path class="b" d="M167.02,206.51l.088,14.968v14.979l.055,29.947-.187-.187h61.772l20.587.11-20.587.11H166.79v-.187l.055-29.948V221.325Z" transform="translate(-37.09 -28.866)"/><path class="b" d="M165.45,209.259a6.584,6.584,0,0,1,3.292,0,6.288,6.288,0,0,1-3.292,0Z" transform="translate(-37.221 -28.619)"/><path class="b" d="M165.45,213.409a6.585,6.585,0,0,1,3.292,0,6.277,6.277,0,0,1-3.292,0Z" transform="translate(-37.221 -28.215)"/><path class="b" d="M165.45,217.559a6.048,6.048,0,0,1,1.646-.208,5.652,5.652,0,0,1,1.646.208,6.584,6.584,0,0,1-3.292,0Z" transform="translate(-37.221 -27.81)"/><path class="b" d="M165.45,221.709a6.585,6.585,0,0,1,3.292,0,6.585,6.585,0,0,1-3.292,0Z" transform="translate(-37.221 -27.406)"/><path class="b" d="M165.45,225.859a6.584,6.584,0,0,1,3.292,0,5.65,5.65,0,0,1-1.646.209A6.046,6.046,0,0,1,165.45,225.859Z" transform="translate(-37.221 -27.002)"/><path class="b" d="M165.45,230.02a6.277,6.277,0,0,1,3.292,0,6.585,6.585,0,0,1-3.292,0Z" transform="translate(-37.221 -26.598)"/><path class="b" d="M165.45,234.149a6.585,6.585,0,0,1,3.292,0A6.277,6.277,0,0,1,165.45,234.149Z" transform="translate(-37.221 -26.195)"/><path class="b" d="M165.45,238.3a6.584,6.584,0,0,1,3.292,0,5.663,5.663,0,0,1-1.646.219A6.067,6.067,0,0,1,165.45,238.3Z" transform="translate(-37.221 -25.791)"/><path class="b" d="M165.45,242.449a6.584,6.584,0,0,1,3.292,0,6.585,6.585,0,0,1-3.292,0Z" transform="translate(-37.221 -25.387)"/><path class="b" d="M165.45,246.6a6.585,6.585,0,0,1,3.292,0A6.584,6.584,0,0,1,165.45,246.6Z" transform="translate(-37.221 -24.982)"/><path class="b" d="M165.45,250.749a6.585,6.585,0,0,1,3.292,0,5.652,5.652,0,0,1-1.646.208,6.048,6.048,0,0,1-1.646-.208Z" transform="translate(-37.221 -24.578)"/><path class="b" d="M165.45,254.9a6.288,6.288,0,0,1,3.292,0,6.584,6.584,0,0,1-3.292,0Z" transform="translate(-37.221 -24.175)"/><path class="b" d="M129.334,109.734a2.359,2.359,0,0,1,0-2.469l.362-.636.329-.647a2.348,2.348,0,0,1,2.041-1.383l3.04-.088-.307-9.876-3.04.088a2.359,2.359,0,0,1-2.195-1.24c-.23-.428-.494-.845-.768-1.251a2.37,2.37,0,0,1-.165-2.458l1.438-2.667L121.29,82.42l-1.438,2.667a2.315,2.315,0,0,1-2,1.262,13.365,13.365,0,0,0-1.481,0,2.359,2.359,0,0,1-2.195-1.1l-1.6-2.579L104.171,87.9l1.6,2.59a2.359,2.359,0,0,1,0,2.458,7.3,7.3,0,0,0-.362.636c-.121.219-.23.428-.329.647a2.348,2.348,0,0,1-2.052,1.383l-3.04.088.307,9.876,3.029-.1a2.381,2.381,0,0,1,2.195,1.24,11.463,11.463,0,0,0,.779,1.262,2.337,2.337,0,0,1,.154,2.458l-1.427,2.667,8.779,4.686,1.438-2.667a2.316,2.316,0,0,1,2.129-1.229,13.365,13.365,0,0,0,1.481-.055,2.381,2.381,0,0,1,2.195,1.1l1.591,2.579,8.417-5.224Zm-15.627-2.48a8.11,8.11,0,1,1,10.974-3.292,8.11,8.11,0,0,1-10.974,3.292Z" transform="translate(-43.596 -40.95)"/><path class="b" d="M101.512,70.355a1.624,1.624,0,0,1-.812-1.525c0-.176,0-.34,0-.516V67.8a1.657,1.657,0,0,1,.8-1.525l1.855-1.1-3.479-5.97-1.844,1.1a1.668,1.668,0,0,1-1.734-.066,8.921,8.921,0,0,0-.889-.516,1.646,1.646,0,0,1-.9-1.536V56.1H87.564v2.085a1.646,1.646,0,0,1-.856,1.5,8.923,8.923,0,0,0-.889.516,1.668,1.668,0,0,1-1.734.066l-1.844-1.1L78.73,65.208l1.844,1.1a1.635,1.635,0,0,1,.8,1.525v1.021a1.635,1.635,0,0,1-.8,1.525l-1.844,1.1,3.457,6.014,1.844-1.1a1.624,1.624,0,0,1,1.723.055c.3.187.593.362.9.516a1.646,1.646,0,0,1,.911,1.47V80.55H94.51V78.41a1.646,1.646,0,0,1,.911-1.47c.307-.154.6-.329.9-.516a1.624,1.624,0,0,1,1.723-.055l1.844,1.1,3.468-6.014ZM91.1,74a5.684,5.684,0,1,1,5.673-5.684A5.684,5.684,0,0,1,91.1,74Z" transform="translate(-45.666 -43.513)"/><path class="b" d="M440.022,223.029a1.646,1.646,0,0,1-.812-1.536c0-.165,0-.329,0-.5v-.516a1.635,1.635,0,0,1,.812-1.569l1.844-1.1-3.457-6-1.844,1.1a1.668,1.668,0,0,1-1.734-.066,7.986,7.986,0,0,0-.9-.516,1.657,1.657,0,0,1-.9-1.47V208.73h-6.946v2.118a1.646,1.646,0,0,1-.911,1.47,8.918,8.918,0,0,0-.889.516,1.668,1.668,0,0,1-1.734.066l-1.844-1.1-3.468,6,1.855,1.1a1.635,1.635,0,0,1,.8,1.514c0,.176,0,.34,0,.516v.5a1.668,1.668,0,0,1-.8,1.536l-1.855,1.1,3.468,6,1.844-1.1a1.646,1.646,0,0,1,1.723.066c.3.187.593.362.9.516a1.646,1.646,0,0,1,.911,1.471v2.14h6.946v-2.085a1.646,1.646,0,0,1,.911-1.47,8.922,8.922,0,0,0,.889-.516,1.668,1.668,0,0,1,1.734-.066l1.844,1.1,3.457-6Zm-10.469,3.643a5.668,5.668,0,1,1,.011,0Z" transform="translate(-12.701 -28.65)"/><path class="b" d="M53.121,393.055h217.4l4.521-89.2H48.6Z" transform="translate(-48.6 -19.386)"/><path class="a" d="M249.656,343.818H158.771l-1.7-30.968h94.572Zm-89.843-1.1h88.811l1.855-28.773H158.222Z" transform="translate(-38.037 -18.51)"/><path class="a" d="M247.628,376.01h-85.6l-1.383-27.95h88.789Zm-84.608-1.1H246.63l1.613-25.756h-86.5Z" transform="translate(-37.688 -15.082)"/><path class="a" d="M209.44,330.663H194.176l-.966-7.473h17.2Zm-14.266-1.1h13.344l.68-5.278h-14.7Z" transform="translate(-34.518 -17.504)"/><path class="a" d="M209.44,364.863H194.176l-.966-7.473h17.2Zm-14.266-1.1h13.344l.68-5.278h-14.7Z" transform="translate(-34.518 -14.173)"/><path class="a" d="M152.215,343.818H61.352L59.64,312.85h94.583Zm-89.843-1.1h88.811l1.855-28.773H60.8Z" transform="translate(-47.525 -18.51)"/><path class="a" d="M150.214,376.01H64.564L63.17,348.06h88.8Zm-84.608-1.1h83.577l1.591-25.756H64.333Z" transform="translate(-47.181 -15.082)"/><path class="a" d="M112.031,330.663H96.756l-.966-7.473h17.2Zm-14.266-1.1h13.344l.68-5.278H97.041Z" transform="translate(-44.005 -17.504)"/><path class="a" d="M112.031,364.863H96.756l-.966-7.473h17.2Zm-14.266-1.1h13.344l.68-5.278H97.041Z" transform="translate(-44.005 -14.173)"/><path class="b" d="M71.331,385.14l-1.361,9.723-2.743,19.522H61.85V385.14Z" transform="translate(-47.31 -11.471)"/><path class="a" d="M71.331,385.14l-1.361,9.723H61.85V385.14Z" transform="translate(-47.31 -11.471)"/><path class="b" d="M233.07,385.14l1.361,9.723,2.743,19.522h5.366V385.14Z" transform="translate(-30.636 -11.471)"/><path class="a" d="M233.07,385.14l1.361,9.723h8.11V385.14Z" transform="translate(-30.636 -11.471)"/></g><g transform="translate(0 419.847)"><ellipse class="b" cx="188.3" cy="20.73" rx="188.3" ry="20.73"/><ellipse class="b" cx="57.174" cy="12.093" rx="57.174" ry="12.093" transform="translate(343.393 8.636)"/></g><g transform="translate(0 402.377)"><path class="d" d="M41.44,411.838l57.217-.263,57.217-.1L270.31,411.3l114.435.176,57.217.1,57.217.263-57.217.274-57.217.1-114.435.176-114.435-.176-57.217-.1Z" transform="translate(-41.44 -411.3)"/></g><g transform="translate(9.459 32.526)"><rect class="b" width="162.303" height="119.757" transform="translate(138.259)"/><path class="c" d="M203.78,106.151l50.721-.121,50.721.121-50.721.132Z" transform="translate(-35.091 -71.177)"/><path class="c" d="M203.78,109.921,254.5,109.8l50.721.121-50.721.132Z" transform="translate(-35.091 -70.81)"/><path class="c" d="M203.78,113.691l50.721-.121,50.721.121-50.721.132Z" transform="translate(-35.091 -70.443)"/><path class="c" d="M203.78,117.461l50.721-.121,50.721.121-50.721.132Z" transform="translate(-35.091 -70.076)"/><path class="c" d="M203.78,121.231l50.721-.121,50.721.121-50.721.132Z" transform="translate(-35.091 -69.709)"/><path class="c" d="M203.78,125l50.721-.121,50.721.121-50.721.132Z" transform="translate(-35.091 -69.342)"/><path class="c" d="M203.78,128.771l50.721-.121,50.721.121L254.5,128.9Z" transform="translate(-35.091 -68.974)"/><path class="c" d="M203.78,132.542l50.721-.132,50.721.132-50.721.132Z" transform="translate(-35.091 -68.608)"/><path class="c" d="M203.78,136.312l50.721-.132,50.721.132-50.721.132Z" transform="translate(-35.091 -68.241)"/><path class="c" d="M203.78,140.082l50.721-.132,50.721.132-50.721.132Z" transform="translate(-35.091 -67.874)"/><path class="c" d="M203.78,143.852l50.721-.132,50.721.132-50.721.132Z" transform="translate(-35.091 -67.507)"/><path class="c" d="M203.78,147.622l50.721-.132,50.721.132-50.721.132Z" transform="translate(-35.091 -67.14)"/><path class="c" d="M203.78,151.392l50.721-.132,50.721.132-50.721.132Z" transform="translate(-35.091 -66.773)"/><path class="c" d="M203.78,155.162l50.721-.132,50.721.132-50.721.121Z" transform="translate(-35.091 -66.406)"/><path class="c" d="M203.78,158.932,254.5,158.8l50.721.132-50.721.121Z" transform="translate(-35.091 -66.038)"/><rect class="e" width="7.693" height="33.777" transform="translate(179.422 63.933)"/><rect class="f" width="7.693" height="48.065" transform="translate(193.688 49.646)"/><rect class="e" width="7.693" height="37.772" transform="translate(207.954 59.939)"/><rect class="f" width="7.693" height="50.326" transform="translate(222.231 47.385)"/><rect class="e" width="7.693" height="43.577" transform="translate(236.497 54.134)"/><rect class="f" width="7.693" height="18.886" transform="translate(250.774 78.825)"/><path class="c" d="M206.333,103.5l.2,16.461.143,16.461q.132,16.395.132,32.812l-.472-.472h49.338l24.68.154,24.669.285-24.669.285-24.68.154H205.85v-.483q0-16.461.132-32.812l.143-16.461Z" transform="translate(-34.889 -71.424)"/><rect class="c" width="7.693" height="0.691" transform="translate(179.422 101.179)"/><rect class="c" width="7.693" height="0.691" transform="translate(193.688 101.179)"/><rect class="c" width="7.693" height="0.691" transform="translate(207.954 101.179)"/><rect class="c" width="7.693" height="0.691" transform="translate(222.231 101.179)"/><rect class="c" width="7.693" height="0.691" transform="translate(236.497 101.179)"/><rect class="c" width="7.693" height="0.691" transform="translate(250.774 101.179)"/><rect class="c" width="112.339" height="2.491" transform="translate(163.235 16.153)"/><rect class="c" width="73.92" height="2.491" transform="translate(182.451 21.355)"/><rect class="b" width="134.451" height="103.999" transform="translate(304.37 35.522)"/><ellipse class="g" cx="25.086" cy="25.086" rx="25.086" ry="25.086" transform="matrix(0.232, -0.973, 0.973, 0.232, 325.202, 106.6)"/><path class="a" d="M376.147,156.687,367.2,180.117a25.086,25.086,0,1,1,34.019-23.429Z" transform="translate(-20.75 -68.688)"/><path class="a" d="M376.144,156.686l20.148,14.935a25.075,25.075,0,1,1,4.938-14.935Z" transform="translate(-20.747 -68.687)"/><path class="e" d="M376.146,156.685,353.88,168.252a25.086,25.086,0,1,1,47.352-11.544Z" transform="translate(-20.748 -68.686)"/><path class="c" d="M383.244,145.57l-.384-.373,12.016-12.027h15.276v.538H395.107Z" transform="translate(-17.652 -68.534)"/><rect class="c" width="23.396" height="0.538" transform="translate(369.104 91.851)"/><path class="c" d="M410.154,183.313h-15.89l-.077-.1-11.347-13.9.417-.34,11.27,13.805h15.627Z" transform="translate(-17.653 -65.048)"/><path class="c" d="M409,133.523a1.152,1.152,0,1,1-.337-.826A1.163,1.163,0,0,1,409,133.523Z" transform="translate(-15.333 -68.613)"/><path class="c" d="M409,158.312a1.152,1.152,0,1,1-.341-.819A1.163,1.163,0,0,1,409,158.312Z" transform="translate(-15.333 -66.198)"/><path class="c" d="M409,181.9a1.152,1.152,0,1,1-.337-.826A1.163,1.163,0,0,1,409,181.9Z" transform="translate(-15.333 -63.902)"/><rect class="c" width="10.447" height="0.538" transform="translate(396.901 64.636)"/><rect class="c" width="14.595" height="0.538" transform="translate(396.901 66.37)"/><rect class="c" width="12.554" height="0.538" transform="translate(396.901 68.093)"/><rect class="c" width="15.967" height="0.538" transform="translate(396.901 69.826)"/><rect class="c" width="13.838" height="0.538" transform="translate(396.901 71.549)"/><rect class="c" width="11.852" height="0.538" transform="translate(396.901 73.283)"/><rect class="c" width="14.42" height="0.538" transform="translate(396.901 91.851)"/><rect class="c" width="9.745" height="0.538" transform="translate(396.901 93.574)"/><rect class="c" width="13.245" height="0.538" transform="translate(396.901 95.308)"/><rect class="c" width="14.42" height="0.538" transform="translate(396.901 97.03)"/><rect class="c" width="15.967" height="0.538" transform="translate(396.901 98.764)"/><rect class="c" width="11.852" height="0.538" transform="translate(396.901 100.487)"/><rect class="c" width="12.082" height="0.538" transform="translate(396.901 117.727)"/><rect class="c" width="15.967" height="0.538" transform="translate(396.901 119.461)"/><rect class="c" width="10.096" height="0.538" transform="translate(396.901 121.184)"/><rect class="c" width="15.967" height="0.538" transform="translate(396.901 122.918)"/><rect class="c" width="13.794" height="0.538" transform="translate(396.901 124.641)"/><rect class="c" width="8.505" height="0.538" transform="translate(396.901 126.374)"/><rect class="c" width="95.626" height="2.491" transform="translate(323.782 47.56)"/><rect class="c" width="62.924" height="2.491" transform="translate(340.133 52.762)"/><rect class="b" width="134.451" height="103.999" transform="translate(0 35.522)"/><rect class="c" width="95.626" height="2.491" transform="translate(19.413 47.56)"/><rect class="c" width="62.924" height="2.491" transform="translate(35.764 52.762)"/><path class="c" d="M63.62,186l12.916-.132,12.916-.044,25.843-.088,25.832.088,12.916.044L166.96,186l-12.916.121-12.916.044-25.832.088-25.843-.088-12.916-.044Z" transform="translate(-48.74 -63.415)"/><path class="c" d="M63.62,179.482l12.916-.121,12.916-.044,25.843-.088,25.832.088,12.916.044,12.916.121-12.916.132-12.916.044-25.832.088-25.843-.088-12.916-.044Z" transform="translate(-48.74 -64.049)"/><path class="c" d="M63.62,172.972l12.916-.121,12.916-.044,25.843-.088,25.832.088,12.916.044,12.916.121-12.916.132-12.916.044-25.832.088-25.843-.088-12.916-.055Z" transform="translate(-48.74 -64.683)"/><path class="c" d="M63.62,166.462l12.916-.121,12.916-.055,25.843-.077,25.832.077,12.916.044,12.916.132-12.916.121-12.916.044-25.832.088-25.843-.088-12.916-.044Z" transform="translate(-48.74 -65.317)"/><path class="c" d="M63.62,159.953l12.916-.132,12.916-.044,25.843-.088,25.832.088,12.916.044,12.916.132-12.916.121-12.916.044-25.832.088-25.843-.088-12.916-.044Z" transform="translate(-48.74 -65.952)"/><path class="c" d="M63.62,153.443l12.916-.132,12.916-.044,25.843-.088,25.832.088,12.916.044,12.916.132-12.916.121-12.916.044L115.3,153.7l-25.843-.088-12.916-.044Z" transform="translate(-48.74 -66.586)"/><path class="c" d="M63.62,146.922l12.916-.121,12.916-.044,25.843-.088,25.832.088,12.916.044,12.916.121-12.916.132-12.916.044-25.832.088L89.452,147.1l-12.916-.044Z" transform="translate(-48.74 -67.22)"/><path class="c" d="M63.62,140.412l12.916-.121,12.916-.044,25.843-.088,25.832.088,12.916.044,12.916.121-12.916.132-12.916.044-25.832.088-25.843-.088-12.916-.055Z" transform="translate(-48.74 -67.854)"/><path class="c" d="M63.62,133.9l12.916-.121,12.916-.055,25.843-.077,25.832.077,12.916.044,12.916.132-12.916.121-12.916.044-25.832.088-25.843-.088-12.916-.044Z" transform="translate(-48.74 -68.488)"/><path class="g" d="M68.07,186.033l-.23-1,13.355-3.04,12.894-12.653,5.158,3.446,10.228-10.228,5.641,3.369,3.676-3.073L128.975,173.6l13.388-16.11,11.182,11.9,12.8-5.849.428.933L153.3,170.626l-10.886-11.577-13.4,16.1-10.3-10.886-3.5,2.93-5.575-3.336L99.379,174.1,94.21,170.67l-12.5,12.258Z" transform="translate(-48.329 -66.166)"/><path class="g" d="M81.73,180.261a1.35,1.35,0,1,1-.391-.962A1.35,1.35,0,0,1,81.73,180.261Z" transform="translate(-47.239 -64.081)"/><path class="g" d="M93.171,169.11a1.361,1.361,0,1,1-1.355-1.239A1.361,1.361,0,0,1,93.171,169.11Z" transform="translate(-46.126 -65.155)"/><path class="g" d="M107.43,162.921a1.35,1.35,0,1,1-.391-.962,1.35,1.35,0,0,1,.391.962Z" transform="translate(-44.736 -65.77)"/><path class="g" d="M112.451,165.931a1.361,1.361,0,1,1-1.361-1.361A1.361,1.361,0,0,1,112.451,165.931Z" transform="translate(-44.249 -65.477)"/><path class="g" d="M115.721,163.241a1.35,1.35,0,1,1-.391-.962,1.361,1.361,0,0,1,.391.962Z" transform="translate(-43.931 -65.738)"/><path class="g" d="M137.141,158.32a1.361,1.361,0,1,1-1.361-1.35,1.361,1.361,0,0,1,1.361,1.35Z" transform="translate(-41.845 -66.217)"/><path class="g" d="M147.48,168.841a1.35,1.35,0,1,1-.391-.962A1.35,1.35,0,0,1,147.48,168.841Z" transform="translate(-40.836 -65.193)"/><path class="g" d="M159.241,163.721a1.35,1.35,0,1,1-.4-.965A1.361,1.361,0,0,1,159.241,163.721Z" transform="translate(-39.693 -65.692)"/><path class="g" d="M125.011,172.89a1.361,1.361,0,1,1-1.35-1.35,1.361,1.361,0,0,1,1.35,1.35Z" transform="translate(-43.026 -64.798)"/><path class="d" d="M68.357,186.089l-.757-.7,14.376-15.725,5.794,3.051,15.3-15.55,4.225,3.468,7.21-6.2,13.739,9.887,3.062-3.49,7.791,7.188,11.413-10.129,7.352,6.288,8.582-2.315.274,1-9.108,2.447-7.089-6.058-11.435,10.162-7.7-7.111-2.985,3.4-13.838-9.964-7.243,6.233-4.17-3.413L87.967,173.974l-5.761-3.029Z" transform="translate(-48.352 -66.464)"/><path class="d" d="M82.181,169.25a1.361,1.361,0,1,1-1.35-1.35,1.361,1.361,0,0,1,1.35,1.35Z" transform="translate(-47.197 -65.152)"/><path class="d" d="M87.482,171.721a1.361,1.361,0,1,1-1.361-1.361A1.361,1.361,0,0,1,87.482,171.721Z" transform="translate(-46.681 -64.913)"/><path class="d" d="M101.242,157.76a1.361,1.361,0,1,1-1.35-1.35A1.361,1.361,0,0,1,101.242,157.76Z" transform="translate(-45.341 -66.271)"/><path class="d" d="M105.4,160.771a1.35,1.35,0,1,1-.391-.962,1.35,1.35,0,0,1,.391.962Z" transform="translate(-44.934 -65.979)"/><path class="d" d="M111.851,155.12a1.361,1.361,0,1,1-1.361-1.35,1.361,1.361,0,0,1,1.361,1.35Z" transform="translate(-44.308 -66.528)"/><path class="d" d="M124.331,164.11a1.361,1.361,0,1,1-1.355-1.239A1.361,1.361,0,0,1,124.331,164.11Z" transform="translate(-43.092 -65.642)"/><path class="d" d="M127.011,161.11a1.361,1.361,0,1,1-1.355-1.239A1.361,1.361,0,0,1,127.011,161.11Z" transform="translate(-42.831 -65.934)"/><path class="d" d="M134.06,167.6a1.35,1.35,0,1,1-1.35-1.35,1.35,1.35,0,0,1,1.35,1.35Z" transform="translate(-42.143 -65.313)"/><path class="d" d="M144.711,158.62a1.361,1.361,0,1,1-1.35-1.35A1.361,1.361,0,0,1,144.711,158.62Z" transform="translate(-41.108 -66.187)"/><path class="d" d="M151.241,163.97a1.35,1.35,0,1,1-.4-.958,1.361,1.361,0,0,1,.4.958Z" transform="translate(-40.472 -65.666)"/><path class="d" d="M159.242,161.68a1.35,1.35,0,1,1-.4-.958A1.361,1.361,0,0,1,159.242,161.68Z" transform="translate(-39.693 -65.889)"/><path class="e" d="M68.5,184.544l-.5-.889,17.437-10.008,9.339,4.2,5.114-1.723,5.333,3.292,11.095-8.143,4.455,3.61,4.675-1.394,7.671,4.324,12.115-5.783,7.649,5.728,13.355-9.6.6.834-13.97,10.041-7.758-5.805-12.038,5.75-7.748-4.379-4.774,1.427-4.269-3.457-11.007,8.088-5.52-3.4-5.037,1.69L85.492,174.8Z" transform="translate(-48.313 -65.127)"/><path class="e" d="M85.391,173.8a1.361,1.361,0,1,1-1.35-1.35,1.361,1.361,0,0,1,1.35,1.35Z" transform="translate(-46.884 -64.709)"/><path class="e" d="M93.852,177.571a1.361,1.361,0,1,1-1.361-1.361A1.361,1.361,0,0,1,93.852,177.571Z" transform="translate(-46.061 -64.343)"/><path class="e" d="M98.491,176.27a1.361,1.361,0,1,1-1.372-1.35,1.361,1.361,0,0,1,1.372,1.35Z" transform="translate(-45.609 -64.469)"/><path class="e" d="M103.491,179.02a1.361,1.361,0,1,1-1.361-1.35,1.361,1.361,0,0,1,1.361,1.35Z" transform="translate(-45.122 -64.201)"/><path class="e" d="M117.411,174.75a1.361,1.361,0,1,1-1.35-1.35,1.361,1.361,0,0,1,1.35,1.35Z" transform="translate(-43.766 -64.617)"/><path class="e" d="M128.742,177.5a1.361,1.361,0,1,1-1.35-1.35A1.361,1.361,0,0,1,128.742,177.5Z" transform="translate(-42.663 -64.349)"/><path class="e" d="M147,177.5a1.35,1.35,0,1,1-1.35-1.35A1.35,1.35,0,0,1,147,177.5Z" transform="translate(-40.883 -64.349)"/><path class="e" d="M113.41,171.66a1.35,1.35,0,1,1-1.35-1.35A1.35,1.35,0,0,1,113.41,171.66Z" transform="translate(-44.154 -64.917)"/><path class="e" d="M121.862,173.8a1.361,1.361,0,1,1-1.361-1.35,1.361,1.361,0,0,1,1.361,1.35Z" transform="translate(-43.333 -64.709)"/><path class="e" d="M139.7,172.28a1.35,1.35,0,1,1-.4-.958A1.361,1.361,0,0,1,139.7,172.28Z" transform="translate(-41.596 -64.857)"/><path class="e" d="M159.242,168.66a1.35,1.35,0,1,1-.4-.958A1.361,1.361,0,0,1,159.242,168.66Z" transform="translate(-39.693 -65.21)"/><path class="c" d="M66.94,130.83l.1,16.867.055,16.856.066,33.733-.219-.219,24.592-.022,24.592.055,24.592.055,24.592.132-24.592.143-24.592.044-24.592.055-24.592-.011h-.23v-.23l.066-33.733.055-16.856Z" transform="translate(-48.439 -68.762)"/></g><g transform="translate(124.081 61.135)"><path class="e" d="M157.561,124.581a13.377,13.377,0,0,1-2.272-7.352c0-9.328,10.239-16.889,22.858-16.889s22.858,7.561,22.858,16.889-10.239,16.878-22.858,16.878a27.435,27.435,0,0,1-15.769-4.664l-7.868,2Z" transform="translate(-154.51 -100.34)"/><path class="d" d="M183.54,115.94a2.37,2.37,0,1,0,2.37-2.37,2.37,2.37,0,0,0-2.37,2.37Z" transform="translate(-151.683 -99.052)"/><path class="d" d="M173.89,115.94a2.37,2.37,0,1,0,2.37-2.37A2.37,2.37,0,0,0,173.89,115.94Z" transform="translate(-152.623 -99.052)"/><path class="d" d="M164.24,115.94a2.37,2.37,0,1,0,2.37-2.37A2.37,2.37,0,0,0,164.24,115.94Z" transform="translate(-153.562 -99.052)"/></g><g transform="translate(189.745 128.385)"><path class="a" d="M341.95,329.41l-2.634,15.78L321.5,441.442H318.62l12.96-96.251,1.909-15.78Z" transform="translate(-204.192 -145.283)"/><path class="h" d="M332.339,329.41H340.8l-2.634,15.78H330.43Z" transform="translate(-203.042 -145.283)"/><path class="a" d="M392.95,441.442h-2.875L372.254,345.19l-2.634-15.78h8.45l1.92,15.78Z" transform="translate(-199.226 -145.283)"/><path class="h" d="M378.07,329.41l1.92,15.78h-7.737l-2.634-15.78Z" transform="translate(-199.226 -145.283)"/><path class="a" d="M441.67,441.442H438.8L420.974,345.19l-2.634-15.78h8.45l1.92,15.78Z" transform="translate(-194.482 -145.283)"/><path class="h" d="M428.71,345.19h-7.737l-2.634-15.78h8.45Z" transform="translate(-194.482 -145.283)"/><path class="a" d="M447.04,345.875H316.43V332.114h48.888l16.439-95.6h60.3Z" transform="translate(-204.406 -154.33)"/><path class="h" d="M436.494,345.875h-7.122L424.73,236.51h6.782Z" transform="translate(-193.859 -154.33)"/><path class="i" d="M382.85,211.35c-2.315,10.853-20.071,54.222-42.37,68.411a23.671,23.671,0,0,1-12.225,2.908c-9.394-1-14.782-45.728-3.588-75.807.428-1.152,26.7.977,28.2,7.6.165.713-3.347,15.122-4.115,14.837-.966-.351,8.571-8.549,24.219-22.057C380.37,200.859,384.419,204.019,382.85,211.35Z" transform="translate(-204.215 -157.515)"/><path class="e" d="M320.043,220.419l30.6,3.665-.428,2.963s12.993-11.961,22.332-19.819,13.783-3.709,9.053,10.37-23.638,55.2-41.47,63.066c-5.816,2.557-8.977,2.985-12.565,2.48s-10.513-12.993-9.876-32.395a254.98,254.98,0,0,1,2.359-30.332Z" transform="translate(-204.288 -157.564)"/><path class="d" d="M347.347,224.948c-.5,9.47-1.2,18.952-2.14,28.389-.274,2.634-.5,5.267-.757,7.9,0,.1.132.11.154,0a135.446,135.446,0,0,0,2.195-14.079c.483-4.675.856-9.426.878-14.123,0-2.711,0-5.41-.121-8.121C347.523,224.828,347.347,224.828,347.347,224.948Z" transform="translate(-201.677 -155.465)"/><path class="i" d="M323.31,211.582s3.358-11.742,9.569-18.557c4.3-4.708,10.272-12.225,28.894-8.34,4.39.922,12.071,7.572,9.6,10.337s-8.779-4.389-15.144-4.51c0,0,6.486,6.145,5.388,10.535a83.4,83.4,0,0,1-3.687,11.27,18.16,18.16,0,0,1-2.195-.494s-1.152,4.071-6.815,7.166Z" transform="translate(-203.736 -159.481)"/><path class="i" d="M336.42,188.736c3.292-.384,10.37-1.1,16.34.373,6.584,1.6,18.952,6.475,17.712,11.347-.9,3.577-5.772,2.129-5.772,2.129s4.675,3.095,3.15,6.145c-1.383,2.776-5.092,1.438-5.092,1.438s2.513,2.359.658,4.774c-2.195,2.919-8.779-3.621-13.629-2.623C348.711,212.549,336.42,188.736,336.42,188.736Z" transform="translate(-202.459 -159.032)"/><path class="d" d="M348.7,195.15a27.182,27.182,0,0,1,14.771,6.584c.1.1.077.219,0,.154a67.167,67.167,0,0,0-14.749-6.727S348.668,195.15,348.7,195.15Z" transform="translate(-201.264 -158.357)"/><path class="d" d="M350.942,188.47a27.149,27.149,0,0,1,14.76,6.584c.11.1.088.23,0,.154a67.255,67.255,0,0,0-14.76-6.716S350.9,188.47,350.942,188.47Z" transform="translate(-201.047 -159.008)"/><path class="d" d="M347.4,201.28c2.732.417,9.986,3.018,14.354,7.506.1.1.066.219,0,.154a71.33,71.33,0,0,0-14.321-7.594Z" transform="translate(-201.39 -157.76)"/><path class="d" d="M353.747,210.747a12.939,12.939,0,0,0-7.824-1.427.077.077,0,0,0,0,.154c2.195.3,4.049.637,4.093.637-2.48,3.61-7.276,5.432-9.35,6.025-.132,0-.066.23.066.219,3.863-.307,7.989-2.5,9.569-6.167.494.11,3.073.7,3.391.669C353.747,210.845,353.78,210.779,353.747,210.747Z" transform="translate(-202.053 -156.988)"/><path class="e" d="M319.269,213.2l-1.119,7.747,33.262,4.444.911-6.924Z" transform="translate(-204.238 -156.6)"/><path class="d" d="M334.822,223.081c2.261.3,4.521.593,6.793.856s4.521.637,6.793.746a.088.088,0,1,0,0-.176c-2.14-.5-4.39-.779-6.518-1.1s-4.609-.724-6.913-1.1c-4.565-.68-9.13-1.185-13.728-1.613-.11,0-.11.143,0,.165C325.78,221.721,330.279,222.489,334.822,223.081Z" transform="translate(-203.945 -155.869)"/><path class="d" d="M378.86,217.6c-3.983,11.852-18.03,42.9-33.02,57.064l29.124-70.836C380.594,201.535,382.6,206.473,378.86,217.6Z" transform="translate(-201.542 -157.566)"/><path class="i" d="M323.6,448.894c2.469.23,69.728-15.78,71.846-17.964.263-.241-1.1-6.354-3.007-14.694v-.165c-1.218-5.278-20.85-48.021-20.85-48.021L328,380.2l19.753,39.659s-8.2,5.926-15.232,11.544h0a96.584,96.584,0,0,0-8.878,7.561C321.612,441.607,321.129,448.674,323.6,448.894Z" transform="translate(-203.87 -141.52)"/><path class="b" d="M323.6,446.175c2.469.23,69.717-15.791,71.846-17.964.263-.241-1.1-6.354-3.007-14.694v-.154c-.45-1.975-3.468-9.152-7.056-17.393-7.177,1.931-32.921,8.878-42.238,11.775l4.7,9.394s-8.208,5.926-15.243,11.544h0a98.2,98.2,0,0,0-8.878,7.561C321.611,438.9,321.128,445.967,323.6,446.175Z" transform="translate(-203.87 -138.801)"/><path class="g" d="M323.406,445.633c2.546.219,69.837-15.978,72.021-18.217.823-.845-.658-11.468-4.389-22.727l-43.379,10.5S325.5,432.75,323.384,435.439,320.871,445.425,323.406,445.633Z" transform="translate(-203.898 -137.952)"/><path class="d" d="M323.555,440.781c11.215-3,56.735-14.014,68.038-16.121.088,0,.1,0,0,.077-11.051,3.2-56.658,13.849-68.038,16.219C323.357,441.011,323.313,440.835,323.555,440.781Z" transform="translate(-203.728 -136.007)"/><path class="d" d="M342.443,416.134c4.5-1.152,10.118-.823,13.805,2.195.143.121,0,.318-.176.285a64.349,64.349,0,0,0-13.575-1.909.287.287,0,1,1-.055-.571Z" transform="translate(-201.898 -136.897)"/><path class="d" d="M339.559,418.134c4.5-1.152,10.118-.812,13.816,2.195.143.11,0,.318-.176.274a64.555,64.555,0,0,0-13.586-1.909.285.285,0,0,1-.055-.56Z" transform="translate(-202.174 -136.702)"/><path class="d" d="M336.677,420.132c4.5-1.1,10.118-.812,13.816,2.195.143.121,0,.318-.176.285a63.648,63.648,0,0,0-13.586-1.909.3.3,0,0,1-.055-.571Z" transform="translate(-202.453 -136.506)"/><path class="d" d="M333.8,422.142c4.5-1.1,10.118-.823,13.816,2.195.143.121,0,.318-.176.285a64.355,64.355,0,0,0-13.586-1.91.287.287,0,1,1-.055-.57Z" transform="translate(-202.739 -136.31)"/><path class="j" d="M347.361,428.675l46.288-12.389s-42.26-88.592-38.968-93.277c1.635-2.326,44.993-4.28,58.479-16.461,17.47-15.747,4.752-38.628,4.752-38.628H369.4s.889,10.118-.955,11.709c-1.218,1.1-58.831,7.627-64.592,27.3C296.783,331.162,347.361,428.675,347.361,428.675Z" transform="translate(-205.697 -151.271)"/><path class="d" d="M342.486,408.193a29.484,29.484,0,0,1,3.808-1.438c1.339-.461,2.689-.933,4.038-1.372,2.656-.878,5.322-1.712,8.011-2.48,5.421-1.569,10.842-3.095,16.3-4.51,2.842-.746,8.933-2.348,9.317-2.294.176,0,.219.329.055.384-5.267,1.92-10.612,3.566-15.967,5.224s-10.688,3.292-16.11,4.7c-1.492.384-3.007.735-4.51,1.1a32.188,32.188,0,0,1-4.8,1.1C342.475,408.577,342.322,408.281,342.486,408.193Z" transform="translate(-201.875 -138.789)"/><path class="d" d="M342.506,318.971a7.4,7.4,0,0,1,3.632-1.251l20.85-4.148c6.507-1.284,13.059-2.469,19.544-3.918,5.366-1.2,10.809-2.765,15.363-5.838a22.551,22.551,0,0,0,9.262-12.763,40.262,40.262,0,0,0,.757-16.033c-.165-1.306-.439-2.59-.724-3.874a.077.077,0,1,1,.154,0c2.074,9.876,2.579,21.421-4.631,29.563-3.523,3.962-8.439,6.387-13.476,8a153.838,153.838,0,0,1-17.558,3.951l-20.85,4.137c-3.347.658-6.749,1.2-10.074,2a3.49,3.49,0,0,0-1.8.856,2.623,2.623,0,0,0-.219,2.436c.384,1.646.878,3.292,1.4,4.872,4.2,12.927,35.391,77.914,36.214,79.308.088.154-.154.274-.241.132-6.76-11.259-30.43-62.254-35.028-74.479a78.15,78.15,0,0,1-3.04-9.525C341.694,321.2,341.507,319.871,342.506,318.971Z" transform="translate(-201.939 -150.964)"/><path class="i" d="M215.581,449.063c2.3.922,71.33,4.444,74,2.941.318-.154.768-6.4,1.24-14.935l.351-8.066c.121-2.722,35.665-42.337,35.665-42.337l-49.558-3-30.31,44.323s-9.536,3.38-17.865,6.8h0a98.306,98.306,0,0,0-10.645,4.752C215.713,441.513,213.277,448.163,215.581,449.063Z" transform="translate(-214.316 -139.999)"/><path class="b" d="M300.223,414.308c-5.158,6.145-9.01,10.974-9.053,11.9l-.351,8.066c-.472,8.549-.933,14.782-1.24,14.946-2.656,1.492-71.7-2.03-74.007-2.952s.143-7.55,2.864-9.492a99.837,99.837,0,0,1,10.645-4.763h0c8.329-3.424,17.865-6.793,17.865-6.793l8.779-12.806Z" transform="translate(-214.317 -137.2)"/><path class="g" d="M215.305,445.468c2.381.922,71.516,4.291,74.238,2.754,1.032-.582,2.59-11.193,2.195-23.045l-44.576-2.118s-26.194,10.6-28.993,12.609S212.935,444.547,215.305,445.468Z" transform="translate(-214.347 -136.163)"/><path class="d" d="M216.268,441c11.6.285,58.381,2.5,69.826,3.665.1,0,.088.066,0,.066-11.512,0-58.271-2.623-69.837-3.534C215.994,441.176,215.994,441,216.268,441Z" transform="translate(-214.18 -134.416)"/><path class="d" d="M240.929,424c4.642.154,9.942,2.052,12.642,5.992.1.154-.11.3-.252.22a64.429,64.429,0,0,0-12.5-5.651.285.285,0,0,1,.11-.56Z" transform="translate(-211.79 -136.072)"/><path class="d" d="M237.606,425.09c4.642.165,9.942,2.063,12.631,5.992.11.154-.11.307-.241.22a64.328,64.328,0,0,0-12.5-5.641.3.3,0,0,1,.11-.571Z" transform="translate(-212.11 -135.966)"/><path class="d" d="M234.276,426.2c4.642.165,9.942,2.063,12.642,6,.1.154-.11.3-.252.22a63.786,63.786,0,0,0-12.5-5.652.3.3,0,0,1,.11-.571Z" transform="translate(-212.435 -135.857)"/><path class="d" d="M230.956,427.32c4.642.165,9.876,2.063,12.631,5.992.11.154-.11.3-.241.219a64.336,64.336,0,0,0-12.5-5.641.3.3,0,0,1,.11-.571Z" transform="translate(-212.758 -135.748)"/><path class="j" d="M241,435.832l52.115,4.082s59.346-68.663,63.769-73.031c13.706-13.52,62.88-36.839,77.541-58.545,13.169-19.5-.165-40.329-.165-40.329h-54.1a110.346,110.346,0,0,0,5.487,16.856s-45.355,33.36-68.839,57.975C294.914,365.8,241,435.832,241,435.832Z" transform="translate(-211.751 -151.262)"/><path class="d" d="M364.087,280.25a26.163,26.163,0,0,1,4.62,1.339c1.569.549,3.117,1.174,4.631,1.855a89.831,89.831,0,0,1,8.691,4.576c.088.055,0,.176-.088.132-2.963-1.427-6.025-2.7-9.086-3.918l-4.39-1.756a46.552,46.552,0,0,1-4.477-1.811.23.23,0,0,1,.1-.417Z" transform="translate(-199.784 -150.07)"/><path class="d" d="M366.7,268.015c.691,2.447,1.306,4.916,2.085,7.341.362,1.1.713,2.195,1.163,3.292.4.911.966,1.942,2.03,2.107s1.547-.856,1.416-1.866-.461-2.25-.713-3.347l-1.745-7.5a.175.175,0,0,1,.055-.187.132.132,0,0,1,.11,0,53.628,53.628,0,0,1,2.074,6.057l.988,3.534a5.684,5.684,0,0,1,.318,2.732,2.085,2.085,0,0,1-1.887,1.635l.132.241c.11.23.2.494.3.735a6.4,6.4,0,0,1,.274.768,2.3,2.3,0,0,1,.088.373q0,.214,0,.428a.208.208,0,0,1-.384.154,3.808,3.808,0,0,0-.241-.34,3.29,3.29,0,0,1-.186-.406c-.088-.253-.165-.494-.242-.746s-.154-.494-.208-.746a2.974,2.974,0,0,1-.055-.45,2.864,2.864,0,0,1-1.437-.494,4.7,4.7,0,0,1-1.536-2.195c-.406-1.01-.724-2.063-1.043-3.106a45.53,45.53,0,0,1-1.811-7.9C366.229,267.861,366.624,267.74,366.7,268.015Z" transform="translate(-199.555 -151.278)"/><path class="d" d="M396.106,272.653c.263,1.218.439,2.447.757,3.654s.669,2.348,1.1,3.5a12.588,12.588,0,0,0,1.6,3.128,12,12,0,0,0,2.458,2.37,20.478,20.478,0,0,0,5.893,3.051,26.977,26.977,0,0,0,3.237.845c.571.11,1.152.2,1.734.252a3.545,3.545,0,0,1,1.394.274.285.285,0,0,1,0,.483,4.916,4.916,0,0,1-2.557.154,17.92,17.92,0,0,1-2.754-.4,19.634,19.634,0,0,1-5.234-2.03,16.142,16.142,0,0,1-4.389-3.4,12.388,12.388,0,0,1-2.469-5,25,25,0,0,1-.955-6.859.121.121,0,0,1,.187-.022Z" transform="translate(-196.665 -150.813)"/><path class="d" d="M248.3,413.241c1.481-.11,15.363.856,18.4,1.163,6.189.625,12.367,1.284,18.546,2.052,3.215.406,10.118,1.24,10.48,1.438a.208.208,0,0,1-.088.384c-6.178-.241-12.335-.757-18.5-1.273s-27.116-2.886-28.85-3.369C248.127,413.592,248.094,413.263,248.3,413.241Z" transform="translate(-211.054 -137.12)"/><path class="d" d="M365.143,346.644c-2.875,1.844-5.641,3.83-8.428,5.794a82.207,82.207,0,0,0-7.682,5.652,40.24,40.24,0,0,0-3.38,3.6q-1.646,1.909-3.292,3.808-3.292,3.819-6.584,7.682l-3.665,4.389c-1.273,1.525-2.436,3.117-3.72,4.631-.077.1.066.23.143.132,2.261-2.535,4.631-4.96,6.881-7.506s4.5-5.1,6.716-7.682,4.214-5.07,6.5-7.429a52.057,52.057,0,0,1,7.561-5.937c3.084-2.195,6.178-4.39,9.163-6.683C365.67,346.885,365.429,346.468,365.143,346.644Z" transform="translate(-203.243 -143.609)"/><path class="d" d="M377.954,283.742c-9.24,6.486-18.787,13.728-27.435,20.927s-17.273,14.529-25.679,22.068q-3.523,3.182-6.99,6.409c-2.337,2.195-4.62,4.905-6.946,7.089-.132.121.066.3.187.187,4.225-3.786,8.592-7.9,12.861-11.632s8.516-7.363,12.8-11.029q12.894-10.974,26.1-21.7c4.883-3.962,10.579-7.967,15.363-12.071C378.371,283.9,378.162,283.633,377.954,283.742Z" transform="translate(-204.948 -149.733)"/><path class="d" d="M427.753,274.261c-.527-1.558-1.1-3.106-1.668-4.642a.077.077,0,1,0-.143,0c2.195,6.42,4.39,13,4.642,19.852a25.822,25.822,0,0,1-1.4,9.668,25.1,25.1,0,0,1-4.938,8.033c-4.291,4.861-9.767,8.68-14.935,12.554-5.608,4.214-11.336,8.285-17.119,12.258s-11.709,7.747-17.69,11.413-12.071,6.957-18,10.557a47.759,47.759,0,0,0-8.055,6.079c-2.5,2.337-4.73,4.927-6.979,7.484q-7.21,8.263-14.266,16.614-14.2,16.658-27.884,33.81c-1.1,1.394-7.748,9.7-8.856,11.106,0,.066,0,.165.1.088,9.361-11.457,24.351-29.75,33.92-41.042q7.133-8.428,14.343-16.768c4.609-5.322,9.042-10.974,14.891-14.968,2.842-1.931,5.86-3.577,8.845-5.267s6.2-3.577,9.273-5.421q9.152-5.487,18.008-11.446c5.882-3.94,11.676-7.967,17.35-12.17q4.269-3.16,8.45-6.409a82.612,82.612,0,0,0,6.946-5.882,30.429,30.429,0,0,0,5.564-7.012,22.871,22.871,0,0,0,2.776-8.889C431.627,287.2,429.871,280.516,427.753,274.261Z" transform="translate(-206.935 -151.116)"/><path class="e" d="M361.346,286.739c1.174,1.032,16.933,1.383,33,1.328,6.09,0,12.247-.11,17.657-.252,9.876-.231,15.265-.494,15.561-.955.823-1.262-12.159-44.641-20.543-60.575-5.322-10.129-9.437-15.265-12.8-18.151-2.03-1.745-2.743-2.732-4.313-3.457-.834-.384-1.624-.713-2.381-1.1-3.819-1.833-14.354,0-16,.845-1.866.977-5.487,10.359-6.518,18.381S360.325,285.828,361.346,286.739Z" transform="translate(-200.049 -157.613)"/><path class="d" d="M368.161,208.143c0-.208.154-.263.187,0,.384,2.7.845,5.992,2.765,7.682,2.5,2.129,6.167.406,8.581-1.1a24.965,24.965,0,0,0,8.472-9.822c.066-.143.3,0,.219.1-2.272,5.1-6.222,9.986-11.665,11.874C370.575,218.919,367.985,214.014,368.161,208.143Z" transform="translate(-199.369 -157.413)"/><path class="i" d="M373.194,214.779c3.764.889,10.217-4.872,12.763-9.536.176-.318-.318-3.687-.713-7.8-.241-2.5-.439-5.289-.45-7.846,0-.527-1.778.439-1.778.439l-3.292.8L368.75,193.5a40.919,40.919,0,0,1,1.558,9.876,6.331,6.331,0,0,1-.11,1.1.853.853,0,0,0,0,.176C369.847,206.516,369.562,213.912,373.194,214.779Z" transform="translate(-199.311 -158.914)"/><path class="d" d="M370.2,204.268a.852.852,0,0,0,0,.176,10.972,10.972,0,0,0,1.646.088c10.809-.252,12.148-13.992,12.148-13.992l-4.269.187-10.974,2.667a40.919,40.919,0,0,1,1.558,9.876,6.336,6.336,0,0,1-.11,1Z" transform="translate(-199.311 -158.806)"/><path class="i" d="M387.486,172.671c1.909,5.63-.582,22.156-4.51,25.953-5.706,5.487-15.287,6.3-20.027-.615-4.587-6.694-.955-28.181,3.457-31.648C372.913,161.247,384.655,164.342,387.486,172.671Z" transform="translate(-200.082 -161.403)"/><path class="k" d="M381.37,195.38h0" transform="translate(-198.082 -158.335)"/><path class="d" d="M371.1,181.49s.077.066.077.11c-.208,1.1-.241,2.414.713,2.93v.066C370.662,184.244,370.738,182.511,371.1,181.49Z" transform="translate(-199.104 -159.688)"/><path class="d" d="M372.259,180.57c1.811.121,1.427,3.731-.252,3.621S370.744,180.46,372.259,180.57Z" transform="translate(-199.099 -159.777)"/><path class="d" d="M365.505,180.92s-.1,0-.1.088c-.088,1.1-.373,2.392-1.427,2.656v.066C365.242,183.685,365.6,182,365.505,180.92Z" transform="translate(-199.775 -159.743)"/><path class="d" d="M364.717,179.762c-1.789-.329-2.315,3.292-.658,3.566S366.21,180.025,364.717,179.762Z" transform="translate(-199.865 -159.858)"/><path class="d" d="M373.836,179.443a12.677,12.677,0,0,1-1.35-.647,2.436,2.436,0,0,1-1.251-.911.768.768,0,0,1,.23-.911,1.9,1.9,0,0,1,1.931,0,2.831,2.831,0,0,1,1.47,1.383.823.823,0,0,1-1.031,1.086Z" transform="translate(-199.075 -160.153)"/><path class="d" d="M363.546,178.2a13.388,13.388,0,0,0,1.481-.219,2.4,2.4,0,0,0,1.459-.5.79.79,0,0,0,.055-.944,1.942,1.942,0,0,0-1.855-.56,2.8,2.8,0,0,0-1.811.889.823.823,0,0,0,.669,1.339Z" transform="translate(-199.9 -160.23)"/><path class="d" d="M371.979,191.155c-.3.241-.6.571-1.021.56a3.007,3.007,0,0,1-1.163-.406s-.077,0-.055.055a1.5,1.5,0,0,0,1.383.724,1.207,1.207,0,0,0,.988-.9.068.068,0,0,0-.132-.033Z" transform="translate(-199.215 -158.751)"/><path class="d" d="M371.574,189.125a3.874,3.874,0,0,1-2.721,1.427,5.3,5.3,0,0,1-1.383-.088l-.263-.055-.241-.066a.3.3,0,0,1-.2-.274h0a.175.175,0,0,1,0-.11h0v-.1c.066-.867.285-2.195.285-2.195-.329.121-2.008.669-1.942.23a57.917,57.917,0,0,1,2.711-11.391c0-.11.219-.066.2.055-.45,3.588-1.536,7.067-2.041,10.656a6.584,6.584,0,0,1,1.855-.351c.121,0-.472,2.5-.472,2.9a5.3,5.3,0,0,0,4.071-.812C371.574,188.939,371.683,189.027,371.574,189.125Z" transform="translate(-199.665 -160.179)"/><path class="d" d="M367.8,188.946a4.577,4.577,0,0,0,1.657,1.6,2.107,2.107,0,0,0,1.229.209c.922-.143,1.032-.966.933-1.679a4.62,4.62,0,0,0-.285-1.1,5.816,5.816,0,0,1-3.534.966Z" transform="translate(-199.403 -159.056)"/><path class="l" d="M369.31,190.451a2.107,2.107,0,0,0,1.229.208c.922-.143,1.031-.966.933-1.679a2.085,2.085,0,0,0-2.162,1.471Z" transform="translate(-199.256 -158.959)"/><path class="d" d="M386.171,185c-2.787.088-3.149-6.7-3.149-6.7s-4.3-.373-6.914-5.981c0,0-5.125,3.929-9.767,3.534-7.276-.636-7.956-9.942-5.487-12.071,3.545-3.04,10.667.241,10.667.241s9.964-3.808,13.651,2.82a5.267,5.267,0,0,1,5.366,4.785C391.362,176.6,388.256,184.921,386.171,185Z" transform="translate(-200.205 -161.538)"/><path class="d" d="M382.632,178.3a9.426,9.426,0,0,1-5.619-2.425,7.078,7.078,0,0,1-2.195-6.1.093.093,0,1,0-.187,0,8.088,8.088,0,0,0,1.778,6.672,6.584,6.584,0,0,0,6.244,2.085C382.73,178.471,382.73,178.306,382.632,178.3Z" transform="translate(-198.751 -160.839)"/><path class="d" d="M388.428,168.21c-1.569-1.657-3.753-1.734-5.871-1.46-.121,0-.088.208,0,.187a5.926,5.926,0,0,1,5.553,2.37c1.229,1.58,1.185,3.72.933,5.608a14.968,14.968,0,0,1-5.1,9.415s0,.11.055.066a14.9,14.9,0,0,0,5.75-10.315C389.953,172.106,389.887,169.736,388.428,168.21Z" transform="translate(-197.974 -161.135)"/><path class="d" d="M371.852,164.385a7.023,7.023,0,0,0-4.2-2.645,8.45,8.45,0,0,0-5.882,1.163,4.719,4.719,0,0,0-2.1,4.247,8.4,8.4,0,0,0,2.359,5.1h.066a8.417,8.417,0,0,1-1.909-4.664,4.39,4.39,0,0,1,2.195-4.082c2.809-1.58,7.133-1.767,9.328,1.042a.109.109,0,1,0,.143-.165Z" transform="translate(-200.196 -161.622)"/><path class="g" d="M363.051,186.433c-1.613-.165-2.711-2.283-2.458-4.708s1.767-4.269,3.369-4.1,2.711,2.283,2.458,4.708S364.654,186.6,363.051,186.433Zm.856-8.219c-1.284-.143-2.5,1.471-2.722,3.566s.647,3.929,1.92,4.06,2.5-1.47,2.721-3.577-.647-3.918-1.92-4.049Z" transform="translate(-200.109 -160.065)"/><path class="g" d="M372.21,187.379a4.444,4.444,0,1,1,4.576-3.94,4.3,4.3,0,0,1-4.576,3.94Zm.856-8.23a3.852,3.852,0,1,0,3.128,4.181A3.709,3.709,0,0,0,373.066,179.148Z" transform="translate(-199.391 -159.979)"/><path class="g" d="M369.034,181.943c-2.129-1.01-3.2-.384-3.215-.384l-.318-.5c.055,0,1.328-.812,3.786.351Z" transform="translate(-199.627 -159.757)"/><path class="g" d="M375.77,182.7V182.1c.4,0,9.558-.757,10.546-.713s3.292,1.646,3.555,1.833l-.34.483a11.337,11.337,0,0,0-3.2-1.712h0C385.471,181.95,379.051,182.433,375.77,182.7Z" transform="translate(-198.627 -159.697)"/><path class="i" d="M382.38,184.568s3.654-5.355,6.09-4.06-.285,9.042-3.106,10.129a2.886,2.886,0,0,1-3.885-1.5Z" transform="translate(-198.071 -159.803)"/><path class="d" d="M387.5,182.5s.055.055,0,.077c-1.975.823-3,2.678-3.709,4.6a1.58,1.58,0,0,1,2.37-.461c.055,0,0,.11-.055.1a1.778,1.778,0,0,0-1.942.647,8.343,8.343,0,0,0-.911,1.58c-.1.187-.417.088-.351-.121h0C382.846,186.341,384.777,182.785,387.5,182.5Z" transform="translate(-197.934 -159.589)"/><path class="d" d="M368.233,200.043a11.052,11.052,0,0,1-1.767-.933,9.077,9.077,0,0,1-1.69-1.339,12.3,12.3,0,0,1-2.272-3.4,17.061,17.061,0,0,1-1.1-4.049,31.522,31.522,0,0,1-.461-4.763c0-.11-.077-.121-.077,0a24.215,24.215,0,0,0,.066,5.114,16.043,16.043,0,0,0,1.24,4.313,8.966,8.966,0,0,0,2.272,3.182,8.779,8.779,0,0,0,3.775,1.986C368.255,200.153,368.277,200.065,368.233,200.043Z" transform="translate(-200.088 -159.3)"/><path class="b" d="M370.148,203.948l4.565,9.394,11.16-13.092,3.687,3.687s-10.381,20.291-10.524,19.413l-4.609-8.011-5.377,6.167L368.48,206.9Z" transform="translate(-199.337 -157.861)"/><path class="d" d="M368.4,213.879c0-2.414-.088-4.839,0-7.254,0-.088.132-.132.154,0,.647,2.283.647,11.523.812,13.717h0c.23-.274,4.982-5.487,5.037-5.41.955,1.262,4.313,7.133,4.554,7.682,1.646-3.226,7.978-14.968,9.975-18.041.055-.088.187,0,.143.066-1.4,3.38-9.778,19.182-9.876,19.149a93.129,93.129,0,0,1-4.8-8.527c-.79,1.1-5.542,6.968-5.586,6.584a73.379,73.379,0,0,1-.417-7.967Z" transform="translate(-199.348 -157.443)"/><path class="i" d="M401.762,225.067c-7.144,18.249-21.179,38.9-26.579,39.188-11.654.6-40.9-12.346-49.218-19-2.743-2.195,9.262-23.232,12.949-23.923s31.231,14.65,33.327,13.717c1.855-.812,14.266-11.972,20.225-17.668C404.439,206.1,403.847,219.777,401.762,225.067Z" transform="translate(-203.516 -156.615)"/><path class="i" d="M333.66,250.224c-9.119-5.761-20.85-12.368-26.337-23.177a6.091,6.091,0,0,1-.658-3.9c-2.579-4.8-1.1-7.462-1.1-7.462-1.043-5.2.867-7.682.867-7.682s-2.974-5.673.154-8.033c3.5-2.667,6.99,5.816,11.753,9.317,10.974,8,28.707,16.318,32.087,18.315Z" transform="translate(-205.505 -157.937)"/><path class="d" d="M323.764,224.932a87.441,87.441,0,0,1-9.174-7.539,87.329,87.329,0,0,1-8.154-10.151.11.11,0,0,0-.176.121,46.09,46.09,0,0,0,17.394,17.723C323.819,225.174,323.918,225.064,323.764,224.932Z" transform="translate(-205.397 -157.182)"/><path class="d" d="M319.96,231.542c-2.952-2.535-8.11-7-14.354-17.372h-.066a41.305,41.305,0,0,0,14.266,17.47C320.037,231.838,320.157,231.728,319.96,231.542Z" transform="translate(-205.466 -156.505)"/><path class="d" d="M317.719,234.766c-4.861-4.477-7.353-7.923-11.182-13.706h-.066c3.665,7.034,5.783,9.163,11.117,13.871C317.773,235.117,317.905,234.942,317.719,234.766Z" transform="translate(-205.376 -155.834)"/><path class="i" d="M330.552,218.076c1.833.472,2.1-.483.055-3.171s-12.389-11.588-8.977-14.935,17.832,9.416,20.85,14.145,6.332,13.465,6.332,13.465C345.554,225.659,337.082,221.763,330.552,218.076Z" transform="translate(-203.966 -157.942)"/><path class="d" d="M346.349,221.315a43.889,43.889,0,0,0-2.524-5.915,31.505,31.505,0,0,0-8.2-9.339c-1.613-1.306-3.292-2.5-5.015-3.676a19.28,19.28,0,0,0-5.619-3.226,3.182,3.182,0,0,0-4.093,1.756c-.68,1.811.241,3.61,1.317,5.059a45.835,45.835,0,0,0,4.905,5.487,22.935,22.935,0,0,1,4.51,5.048h0a1.591,1.591,0,0,1,.274.955c0,.263-.077.318-.318.406a.944.944,0,0,1-.461,0,5.4,5.4,0,0,1-1.481-.7l-1.4-.8c-.911-.516-1.8-1.1-2.7-1.6a32.245,32.245,0,0,1-2.963-1.8.088.088,0,1,0-.1.132c1.1.812,5.619,4.016,6.837,4.675.757.417,2.118,1.262,2.809.241a1.1,1.1,0,0,0,0-1.1c-1.229-2.82-5.169-6.387-7.287-8.9-1.251-1.47-2.963-3.215-3.38-5.169a2.919,2.919,0,0,1,.549-2.5,2.6,2.6,0,0,1,2.831-.4,21.191,21.191,0,0,1,5.257,3.193c1.624,1.1,3.226,2.337,4.774,3.577a33.821,33.821,0,0,1,7.857,8.395c2.436,3.9,4.005,8.3,6,12.389a.088.088,0,0,0,.154-.066C348.072,225.485,347.106,223.389,346.349,221.315Z" transform="translate(-203.993 -157.988)"/><path class="e" d="M349.486,225.595,337.47,253.029s28.784,15.363,37.7,11.643,23.649-32.724,25.745-40.779,1.1-16.219-9.481-7.682-19.852,17.876-20.8,18.019S349.486,225.595,349.486,225.595Z" transform="translate(-202.357 -156.66)"/><path class="e" d="M349.486,225.6,337.47,253.034s28.784,15.363,37.7,11.643,24.142-33.02,26.205-41.075.615-15.923-9.942-7.341-19.852,17.876-20.8,18.019S349.486,225.6,349.486,225.6Z" transform="translate(-202.357 -156.664)"/><path class="e" d="M333.23,251.485l7.188,3.106,12.609-29.783-6.442-2.678Z" transform="translate(-202.77 -155.73)"/><path class="d" d="M346.673,239.1q1.284-3.051,2.524-6.09c.834-2.03,1.745-4.049,2.425-6.134,0-.088-.121-.176-.165-.077-1.021,1.855-1.844,3.841-2.722,5.772s-1.844,4.093-2.754,6.156c-1.8,4.06-3.424,8.175-4.982,12.335,0,.11.11.154.154.055C343.085,247.172,344.962,243.178,346.673,239.1Z" transform="translate(-202.013 -155.28)"/><path class="d" d="M384.622,220.192c-1.163.834-14.376,12.686-14.924,13.048s-1.416-.088-2.063-.362q-3.962-1.657-7.912-3.38c-2.941-1.273-5.739-2.3-8.691-3.577-.1,0-.176.1-.077.143,2.7,1.295,5.136,2.6,7.857,3.841s5.487,2.447,8.208,3.61c1.021.439,2.1,1.1,3.095.34,1.185-.911,13.542-12.181,14.661-13.487C384.852,220.269,384.731,220.115,384.622,220.192Z" transform="translate(-201.048 -155.921)"/><path class="d" d="M398.957,230.194c-1.7,2.886-3.292,5.816-5.037,8.68s-3.567,5.805-5.487,8.636-3.654,5.388-5.619,7.978a44.455,44.455,0,0,1-3.226,3.808,12.764,12.764,0,0,1-3.808,3,10.973,10.973,0,0,1-5.037.823,24.233,24.233,0,0,1-2.524-.208c-1.756-.307-3.479-.746-5.191-1.2a87.03,87.03,0,0,1-14.156-5.344c-1.295-.593-2.568-1.218-3.852-1.822s-2.831-1.317-4.181-1.833c0,0-.439.9-.45.911-.538-.318-6.87-2.919-7-2.952a12.292,12.292,0,0,0,.615-1.657c0-.1,0-.165-.11-.077a11.69,11.69,0,0,0-.933,2.03s7.44,3.117,7.506,3.073.483-1.1.494-1.1c1.2.593,2.381,1.218,3.545,1.866s2.359,1.251,3.555,1.855c2.392,1.185,4.818,2.326,7.287,3.292,4.708,1.909,9.8,3.709,14.924,4.049a12.883,12.883,0,0,0,4.269-.439c3.237-.735,5.377-3.413,7.363-5.893a148.137,148.137,0,0,0,11.555-17.053l1.1-1.877a44.505,44.505,0,0,1,3.951-4.675c.077-.066-.055-.187-.132-.11-.922.944-1.855,1.887-2.732,2.886,1.229-2.195,2.414-4.324,3.457-6.584C399.187,230.172,399.022,230.1,398.957,230.194Z" transform="translate(-202.796 -154.949)"/></g><g transform="translate(26.096 73.049)"><path class="m" d="M189.269,448.313c-2.359.757-69.552-.11-72.087-1.778-.977-.615-1.427-10.4-1.613-22.266V423.9c0-2.436-.077-4.96-.077-7.506v-1.1c-.1-17.108.176-34.853.176-34.853l44.993.45-1.35,34.524-.055,1.372-.274,7.144v.746s25.569,11.83,28.17,13.948S191.628,447.556,189.269,448.313Z" transform="translate(-60.327 -84.978)"/><path class="e" d="M164.344,425.014a.265.265,0,0,1-.274-.154Z" transform="translate(-55.594 -80.652)"/><path class="e" d="M189.254,444.069c-2.359.768-69.552-.1-72.1-1.767-.856-.538-1.306-8.34-1.536-18.392,12.313,2.568,60.027,12.214,61.333,8.132.516-1.6-3.566-4.39-6.145-5.937,7.056,3.358,14.869,7.21,16.241,8.34C189.616,436.552,191.614,443.323,189.254,444.069Z" transform="translate(-60.312 -80.745)"/><path class="n" d="M147.038,443.97c-15.111-.362-28.751-.933-29.882-1.668-.856-.538-1.306-8.34-1.536-18.392l7.155,1.46Z" transform="translate(-60.312 -80.745)"/><path class="d" d="M103.06,204.09s10.085,113.546,11.731,122.215c.384,1.964.626,12.7.779,26.491.34,30.1.143,84.389.143,84.389h47.363s-1.4-94.057-3.5-111.362S144.069,204.09,144.069,204.09Z" transform="translate(-61.535 -102.151)"/><path class="g" d="M159.655,409.03c-7.4-.154-5.267-.22-12.664-.285-3.61,0-27.435-.241-30.727.318-.066,0-.066.143,0,.154,3.38.56,27.16.351,30.727.318,7.4-.077,5.267-.132,12.664-.285C159.786,409.216,159.786,409.03,159.655,409.03Z" transform="translate(-60.254 -82.226)"/><path class="g" d="M124.18,374.709q-.088-10.3-.154-20.609c-.055-6.65,0-13.311-.362-19.961-.636-13.465-3.369-26.7-5.311-40s-3.566-26.677-5.026-40.054c-1.646-15.012-3.106-30.035-4.642-45.058,0-.1-.176-.1-.165,0,2.195,26.809,4.719,53.618,8.439,80.273q1.383,9.942,3.018,19.852c1.1,6.683,2.195,13.366,2.732,20.126s.6,13.256.669,19.9q.11,10.293.208,20.6c.143,15.243.3,38.727.439,53.969a.23.23,0,1,0,.461,0C124.41,410.122,124.278,388.295,124.18,374.709Z" transform="translate(-61.003 -101.677)"/><path class="g" d="M94,204.09s20.071,113.546,21.717,122.215c.384,1.964.626,12.7.779,26.491h0l22.5-148.706Z" transform="translate(-62.417 -102.151)"/><path class="m" d="M139.024,452.411c-2.414.593-69.376-5.037-71.791-6.88-.922-.68-.669-10.48,0-22.321v-.373c.132-2.436.274-4.949.45-7.5a9.576,9.576,0,0,1,.066-1.1c1.1-17.064,2.645-34.754,2.645-34.754l44.806,3.632-3.8,34.348-.143,1.361-.779,7.111-.077.735S135.073,440.34,137.5,442.6,141.427,451.829,139.024,452.411Z" transform="translate(-65.082 -85.07)"/><path class="e" d="M116.422,427.364c-.154-.055-.241-.11-.252-.154Z" transform="translate(-60.258 -80.423)"/><path class="e" d="M139.014,448.085c-2.4.593-69.365-5.037-71.78-6.881-.79-.571-.724-7.824-.285-17.295,10.37,2.656,60.356,15.232,61.892,11.095.318-.867-.746-2.195-2.195-3.435a113.68,113.68,0,0,1,10.853,6.738C139.924,440.6,141.417,447.493,139.014,448.085Z" transform="translate(-65.083 -80.745)"/><path class="d" d="M112.539,439.744,65.22,437.736S78.136,333.891,78.389,327.515c.351-9.492,4.905-48.658,8.779-80.361,0,0-7.243-17.163,6.31-43.094h54.386s-3.643,24.669-9.876,40.318a72.273,72.273,0,0,0-12.071,5.487s-5.41,70.693-5.608,79.516C119.848,346.84,112.539,439.744,112.539,439.744Z" transform="translate(-65.22 -102.154)"/><path class="g" d="M111.044,411.1c-7.374-.472-5.256-.439-12.631-.823-3.61-.187-27.358-1.4-30.727-.988a.077.077,0,0,0,0,.154c3.292.7,27.105,1.5,30.727,1.624,7.385.241,5.267.088,12.653.241a.11.11,0,1,0-.022-.209Z" transform="translate(-64.987 -82.177)"/><path class="g" d="M134.6,239.82a90.6,90.6,0,0,0-14.156,6.584.165.165,0,0,0,.132.3c4.774-2.052,9.635-4.016,14.266-6.321a.318.318,0,0,0-.241-.56Z" transform="translate(-59.849 -98.672)"/><path class="g" d="M135.583,210.012c0-.165-.3-.209-.3,0a158.86,158.86,0,0,1-.8,15.909c-.221,2.472-2.2,16.047-6.454,15.059-.713-.165-1.1-.867-1.2-1.942a16.878,16.878,0,0,1,.571-4.159c.472-2.842.856-5.7,1.1-8.57a78.508,78.508,0,0,0-.176-16.055.143.143,0,0,0-.274,0,146.71,146.71,0,0,1-1.295,22.167c-.538,3.534-2.315,8.856,1.383,9.394s6.189-8.351,6.65-10.787A81.106,81.106,0,0,0,135.583,210.012Z" transform="translate(-59.315 -101.588)"/><path class="g" d="M128.061,238.563a23.046,23.046,0,0,0-.955,2.82,6.419,6.419,0,0,0-.406,2.3.165.165,0,0,0,.3.066,8.285,8.285,0,0,0,1-2.25c.318-.867.658-1.734.966-2.612a.483.483,0,0,0-.9-.329Z" transform="translate(-59.233 -98.819)"/><path class="d" d="M158.231,168.912h-4.269a24.449,24.449,0,0,0-1.92-7.3,28.171,28.171,0,0,1,.56,7.3h-3.753c-.329-2.908-1.207-8.175-3.5-11.907.11.4,1.986,7.528,1.547,11.907H113.831c-1.46-6.979-.329-14.562-.9-12.905a46.507,46.507,0,0,0-2.074,12.905h-3.676a22.441,22.441,0,0,1,.3-5.267c.483-2.315-1.416,2.272-1.657,5.267h-2.348s-.461-9.942,3.171-17.02c4.828-9.427,2.008-12.916,3.983-23.232,2.261-11.742,17.69-25.931,33.108-11.095a24.68,24.68,0,0,1,8.483,18.4c.066,8.384-1.833,12.828,1.1,17.141a27.951,27.951,0,0,1,4.916,15.8Z" transform="translate(-61.497 -111.197)"/><path class="d" d="M102.114,166.164a26.469,26.469,0,0,1,.988-10.634,31.825,31.825,0,0,1,1.909-5.048c.362-.812.823-1.613,1.218-2.392a18.258,18.258,0,0,0,1.1-2.37,48.812,48.812,0,0,0,1.986-10.337c.209-1.767.45-3.534.812-5.289a24.9,24.9,0,0,1,1.624-5.1,45.663,45.663,0,0,0-1.646,10.48c-.132,1.767-.3,3.545-.549,5.322a29.555,29.555,0,0,1-1.262,5.278,18.774,18.774,0,0,1-1.1,2.491c-.428.812-.845,1.558-1.24,2.348a38.286,38.286,0,0,0-2.019,4.85,34.217,34.217,0,0,0-1.295,5.114c-.165.867-.274,1.745-.362,2.634A23.96,23.96,0,0,0,102.114,166.164Z" transform="translate(-61.643 -109.854)"/><path class="d" d="M147.946,133.77c.077,1.427,0,2.842,0,4.269a38.631,38.631,0,0,0,.154,4.225,25.8,25.8,0,0,0,.7,4.115c.077.34.2.669.3,1l.077.252.077.2c.066.143.143.3.219.439.329.6.713,1.2,1.1,1.811.735,1.218,1.449,2.469,2.074,3.764a27.707,27.707,0,0,1,1.569,4.038,22.364,22.364,0,0,1,.856,4.225,21.55,21.55,0,0,1,0,4.291,27.269,27.269,0,0,0-1.6-8.263A40.209,40.209,0,0,0,149.7,150.6c-.362-.6-.746-1.207-1.1-1.855l-.252-.527-.11-.285-.077-.263c-.088-.351-.208-.7-.274-1.1a21.947,21.947,0,0,1-.56-4.3,33.085,33.085,0,0,1,.132-4.3C147.584,136.59,147.793,135.186,147.946,133.77Z" transform="translate(-57.226 -108.999)"/><path class="m" d="M122.277,160.061c5.377,9.734,31.495,43.9,44.181,44.861,8.274.6,37.629-10.59,44.257-14.771,7.78-4.883-1.152-24.8-6.486-23.912-6.65,1.1-30.4,11.676-36.5,12.346-3.5.4-21.728-13.476-40.076-25.1C120.741,149.1,118.612,153.444,122.277,160.061Z" transform="translate(-59.836 -107.251)"/><path class="m" d="M193.806,160.186c4.093-1.4,8.669-3.347,13.169-3.215s8.23,6.134,8.219,7.846-1.822,12.378-6.354,12.335-1.723-8.219-1.888-9.163-.318-2.14-1.174-2.063-15.868,7.045-15.868,7.045Z" transform="translate(-53.078 -106.74)"/><path class="m" d="M193.729,160.873c.263,0,12.433-4.675,16.965-4.543s8.23,6.134,8.219,7.846-1.822,12.378-6.354,12.335-1.723-8.219-1.877-9.163-.329-2.195-1.185-2.063-15.868,7.045-15.868,7.045Z" transform="translate(-52.715 -106.802)"/><path class="d" d="M210.37,175.157a5.4,5.4,0,0,1-.735-2.689,9.108,9.108,0,0,1,.2-2.886,17.79,17.79,0,0,0,.571-2.491,5.015,5.015,0,0,0-.615-2.4c-.34-.636-1.01-.417-1.58-.23a22.721,22.721,0,0,0-2.48,1.1c-.867.417-1.723.856-2.59,1.295a23.568,23.568,0,0,0-2.645,1.427.066.066,0,0,0,0,.121,22.742,22.742,0,0,0,2.315-1.01c.856-.4,1.723-.79,2.6-1.163s1.6-.757,2.425-1.1a2.589,2.589,0,0,1,1.2-.34c.351.077.5.933.582,1.207a4.39,4.39,0,0,1-.176,2.447,12.726,12.726,0,0,0-.494,2.48,6.848,6.848,0,0,0,.165,2.359,9.644,9.644,0,0,0,1.1,1.953C210.282,175.321,210.425,175.233,210.37,175.157Z" transform="translate(-52.051 -106.029)"/><path class="m" d="M180.53,173.6s12.653-11.325,15.286-13.575c5.289-4.51,27.435-13.333,30.518-13.629s4.137,6.014-10.908,12.433c-7.923,3.38-9.372,7.89-9.24,10.4s2.48,7.2,6.694,7.122,7-6.2,10.886-6.859,1.262,6.431-1.514,10.513a25.767,25.767,0,0,1-11.424,8.779c-3.654,1.339-14.979,6.1-14.979,6.1Z" transform="translate(-53.991 -107.77)"/><path class="d" d="M215.86,172.3c-1.6,1.218-3.413,2.8-5.487,2.853s-3.556-1.35-4.543-3.117a8.077,8.077,0,0,1-1.1-5.849,9.876,9.876,0,0,1,2.93-4.7,23.813,23.813,0,0,1,5.75-3.753c.088,0,0-.176-.088-.132-1.942.845-8,3.292-9.251,8.582a8.153,8.153,0,0,0,1.1,5.948c.911,1.69,2.261,3.292,4.3,3.5,2.491.23,4.653-1.778,6.453-3.292C216.079,172.3,215.948,172.3,215.86,172.3Z" transform="translate(-51.714 -106.678)"/><path class="e" d="M157.369,204.308l.944-31.824a280.686,280.686,0,0,0-25.734-17.317c-12.8-7.407-17.832-5.4-8.033,10.26S147.789,198.821,157.369,204.308Z" transform="translate(-59.944 -107.318)"/><path class="f" d="M144.237,168.426a7.889,7.889,0,0,0,0,2.195,7.428,7.428,0,0,0,.593,2.129,8.34,8.34,0,0,0-.626-4.39Z" transform="translate(-57.533 -105.63)"/><path class="f" d="M150.63,176.229a7.879,7.879,0,0,0,2.195,0,7.43,7.43,0,0,0,2.129-.593,7.893,7.893,0,0,0-2.195,0A8.209,8.209,0,0,0,150.63,176.229Z" transform="translate(-56.903 -104.929)"/><path class="f" d="M122.49,154.24a7.877,7.877,0,0,0,2.195,0,8.284,8.284,0,0,0,2.14-.593,7.5,7.5,0,0,0-2.195,0A7.606,7.606,0,0,0,122.49,154.24Z" transform="translate(-59.643 -107.071)"/><path class="f" d="M148.475,182.46a7.276,7.276,0,0,0-1.547,1.58,7.594,7.594,0,0,0-1.1,1.931,7.319,7.319,0,0,0,1.547-1.591,7.681,7.681,0,0,0,1.1-1.92Z" transform="translate(-57.37 -104.257)"/><path class="f" d="M134.815,160.68a7.275,7.275,0,0,0-1.547,1.58,7.594,7.594,0,0,0-1.1,1.931,7.584,7.584,0,0,0,1.547-1.591A8.077,8.077,0,0,0,134.815,160.68Z" transform="translate(-58.7 -106.378)"/><path class="f" d="M138.722,175.885a7.813,7.813,0,0,0-1.58-1.547,7.561,7.561,0,0,0-1.931-1.1,8.165,8.165,0,0,0,1.591,1.547A8.045,8.045,0,0,0,138.722,175.885Z" transform="translate(-58.404 -105.155)"/><path class="f" d="M153.562,195.4a8.164,8.164,0,0,0-1.591-1.547,7.681,7.681,0,0,0-1.92-1.1,7.812,7.812,0,0,0,1.58,1.547A7.9,7.9,0,0,0,153.562,195.4Z" transform="translate(-56.959 -103.254)"/><path class="d" d="M151.356,170.636q-.543,6.584-.636,13.169v6.584c0,2.195.208,4.51.3,6.771,0,.11.165.088.165,0,0-4.39.121-8.878.176-13.311l.165-13.267C151.51,170.559,151.367,170.548,151.356,170.636Z" transform="translate(-56.894 -105.415)"/><path class="e" d="M147.712,217.3s-21.487,5.092-62.221,1.569c0,0,15.934-50.831,28.751-64.537,5.838-6.233,11.544-5.278,16.373-1.273,1.207,1.01,16.164,19.983,17.437,26.6,1.1,5.849-3.632,12.335-3.632,12.335Z" transform="translate(-63.246 -107.432)"/><path class="d" d="M140.066,170.5c-.9-1.35-1.822-2.7-2.776-4.005-.154-.472-.34-.922-.516-1.383a18.735,18.735,0,0,0-.977-1.931,15.868,15.868,0,0,0,.713,2.03l.252.56q-1.438-1.942-2.963-3.819c1.877,3,3.907,5.882,5.794,8.856a40.723,40.723,0,0,1,2.634,4.543,15.973,15.973,0,0,1,.637,1.558,12.7,12.7,0,0,1-.384,8.241,25.942,25.942,0,0,1-1.734,3.962c0,.1.1.176.154.077a38.047,38.047,0,0,0,2.052-3.994,14.156,14.156,0,0,0,.9-4.39C144.1,176.589,141.954,173.769,140.066,170.5Z" transform="translate(-58.542 -106.254)"/><path class="f" d="M126.737,168.46a7.88,7.88,0,0,0,0,2.195,7.429,7.429,0,0,0,.593,2.129,7.89,7.89,0,0,0,0-2.195,8.329,8.329,0,0,0-.593-2.129Z" transform="translate(-59.237 -105.621)"/><path class="f" d="M127.627,201.69a7.88,7.88,0,0,0,0,2.195,7.605,7.605,0,0,0,.593,2.14,7.88,7.88,0,0,0,0-2.195A8.287,8.287,0,0,0,127.627,201.69Z" transform="translate(-59.15 -102.385)"/><path class="f" d="M137.237,207.69a7.878,7.878,0,0,0,0,2.195,8.208,8.208,0,0,0,.593,2.129,7.8,7.8,0,0,0,0-2.195A7.5,7.5,0,0,0,137.237,207.69Z" transform="translate(-58.214 -101.8)"/><path class="f" d="M106.075,180.25a8.647,8.647,0,0,0,.625,4.39,7.8,7.8,0,0,0,0-2.195A7.506,7.506,0,0,0,106.075,180.25Z" transform="translate(-61.247 -104.472)"/><path class="f" d="M137.9,187a7.891,7.891,0,0,0,0,2.195,7.429,7.429,0,0,0,.593,2.129,7.879,7.879,0,0,0,0-2.195A8.207,8.207,0,0,0,137.9,187Z" transform="translate(-58.15 -103.815)"/><path class="f" d="M114.946,174.838a7.891,7.891,0,0,0,2.195,0,8.331,8.331,0,0,0,2.129-.593,8.483,8.483,0,0,0-4.39.615Z" transform="translate(-60.384 -105.064)"/><path class="f" d="M103.39,194.45a7.878,7.878,0,0,0,2.195,0,7.428,7.428,0,0,0,2.129-.593,7.419,7.419,0,0,0-2.195,0,7.507,7.507,0,0,0-2.129.593Z" transform="translate(-61.503 -103.155)"/><path class="f" d="M122.62,192.839a7.877,7.877,0,0,0,2.195,0,7.6,7.6,0,0,0,2.195-.593,7.88,7.88,0,0,0-2.195,0A8.012,8.012,0,0,0,122.62,192.839Z" transform="translate(-59.63 -103.312)"/><path class="f" d="M87.73,210.849a7.877,7.877,0,0,0,2.195,0,8.209,8.209,0,0,0,2.129-.593,7.8,7.8,0,0,0-2.195,0A8.286,8.286,0,0,0,87.73,210.849Z" transform="translate(-63.028 -101.558)"/><path class="f" d="M122.49,154.24a7.877,7.877,0,0,0,2.195,0,8.284,8.284,0,0,0,2.14-.593,7.5,7.5,0,0,0-2.195,0A7.606,7.606,0,0,0,122.49,154.24Z" transform="translate(-59.643 -107.071)"/><path class="f" d="M116.235,157.73a8.11,8.11,0,0,0-1.547,1.58,7.9,7.9,0,0,0-1.1,1.931,7.814,7.814,0,0,0,1.547-1.58,7.9,7.9,0,0,0,1.1-1.931Z" transform="translate(-60.51 -106.665)"/><path class="f" d="M98.7,182.76a7.813,7.813,0,0,0-1.547,1.58,7.562,7.562,0,0,0-1.1,1.931,7.869,7.869,0,0,0,1.547-1.591,8.045,8.045,0,0,0,1.1-1.92Z" transform="translate(-62.217 -104.228)"/><path class="f" d="M132.045,180.42a7.867,7.867,0,0,0-1.547,1.591,7.681,7.681,0,0,0-1.1,1.92,7.813,7.813,0,0,0,1.547-1.58A7.9,7.9,0,0,0,132.045,180.42Z" transform="translate(-58.97 -104.456)"/><path class="f" d="M115.375,199.08a7.813,7.813,0,0,0-1.547,1.58,7.9,7.9,0,0,0-1.1,1.931,8.647,8.647,0,0,0,2.634-3.512Z" transform="translate(-60.593 -102.639)"/><path class="f" d="M134.025,162.04l-.307.428a7.583,7.583,0,0,1-1.547,1.591,7.593,7.593,0,0,1,1.1-1.931c.143-.187.285-.362.439-.538Z" transform="translate(-58.7 -106.29)"/><path class="f" d="M138.722,175.885a7.813,7.813,0,0,0-1.58-1.547,7.561,7.561,0,0,0-1.931-1.1,8.165,8.165,0,0,0,1.591,1.547A8.045,8.045,0,0,0,138.722,175.885Z" transform="translate(-58.404 -105.155)"/><path class="f" d="M96.312,199.135a7.868,7.868,0,0,0-1.591-1.547,7.682,7.682,0,0,0-1.92-1.1,7.814,7.814,0,0,0,1.58,1.547A7.9,7.9,0,0,0,96.312,199.135Z" transform="translate(-62.534 -102.891)"/><path class="f" d="M139.652,199.864a8.647,8.647,0,0,0-3.512-2.634,7.817,7.817,0,0,0,1.58,1.547A7.9,7.9,0,0,0,139.652,199.864Z" transform="translate(-58.314 -102.819)"/><path class="f" d="M109.722,170.915a7.8,7.8,0,0,0-1.58-1.547,7.592,7.592,0,0,0-1.931-1.1,8.615,8.615,0,0,0,3.512,2.645Z" transform="translate(-61.228 -105.639)"/><path class="f" d="M122.032,212.425a7.868,7.868,0,0,0-1.591-1.547,8.045,8.045,0,0,0-1.92-1.1,7.814,7.814,0,0,0,1.624,1.558A7.9,7.9,0,0,0,122.032,212.425Z" transform="translate(-60.03 -101.597)"/><path class="f" d="M118.372,186.9a8.615,8.615,0,0,0-3.512-2.645,7.275,7.275,0,0,0,1.58,1.547,7.594,7.594,0,0,0,1.931,1.1Z" transform="translate(-60.386 -104.082)"/><path class="f" d="M104.452,207.4a7.8,7.8,0,0,0-1.58-1.547,7.6,7.6,0,0,0-1.931-1.1A8.614,8.614,0,0,0,104.452,207.4Z" transform="translate(-61.742 -102.086)"/><path class="m" d="M116.5,154.127c.241,1.1,5.4,8.274,10.414,8.088,1.635-.055,1.7-8.988,1.7-8.988l.154-.658,2.195-9.207L120.2,136.284l-1.558-.944s-.428,2.557-.922,5.75a1,1,0,0,1-.077.461,1.7,1.7,0,0,0-.088.516c-.077.472-.165.966-.23,1.449s-.11.724-.154,1.1-.1.768-.154,1.163a61.784,61.784,0,0,0-.516,8.351Z" transform="translate(-60.226 -108.846)"/><path class="d" d="M117.58,141.094a18.908,18.908,0,0,0,11.084,11.435l2.195-9.207-10.765-7.078-1.558-.944S118.041,137.9,117.58,141.094Z" transform="translate(-60.121 -108.85)"/><path class="m" d="M145.025,131.434c1.789,16.516-7.89,19.457-11.457,19.83-3.237.351-14.266,1.1-17.767-15.122s3.621-22.288,10.974-23.473S143.236,114.929,145.025,131.434Z" transform="translate(-60.384 -111.074)"/><path class="d" d="M140.209,127.543a9.868,9.868,0,0,1-1.1-.143,1.789,1.789,0,0,1-1.1-.362.593.593,0,0,1-.066-.724,1.492,1.492,0,0,1,1.416-.461,2.129,2.129,0,0,1,1.4.647.626.626,0,0,1-.56,1.042Z" transform="translate(-58.147 -109.773)"/><path class="d" d="M129.673,128.41a9.689,9.689,0,0,0,1.1-.329,1.822,1.822,0,0,0,1.1-.549.593.593,0,0,0-.066-.724,1.471,1.471,0,0,0-1.47-.209,2.118,2.118,0,0,0-1.273.867.626.626,0,0,0,.615.944Z" transform="translate(-59.012 -109.708)"/><path class="d" d="M132.39,131.74s-.077.066-.066.11c.154,1.1.143,2.425-.834,2.908v.066C132.73,134.516,132.73,132.772,132.39,131.74Z" transform="translate(-58.767 -109.196)"/><path class="d" d="M131.392,130.77c-1.822.066-1.569,3.7.121,3.643S132.917,130.715,131.392,130.77Z" transform="translate(-58.899 -109.291)"/><path class="d" d="M130.828,131c-.3.23-.582.615-.966.68s-.8-.285-1.1-.626h-.055a1.3,1.3,0,0,0,1.1,1.449c.746.055,1.1-.6,1.262-1.317C131.08,131.09,130.949,130.9,130.828,131Z" transform="translate(-59.037 -109.271)"/><path class="d" d="M138,131.12a.1.1,0,0,1,.1.1c0,1.1.263,2.414,1.306,2.732v.055C138.156,133.918,137.871,132.2,138,131.12Z" transform="translate(-58.135 -109.257)"/><path class="d" d="M138.946,130c1.811-.252,2.195,3.38.5,3.61S137.432,130.2,138.946,130Z" transform="translate(-58.135 -109.367)"/><path class="d" d="M139.6,130.173c.307.165.626.483.966.472s.658-.439.867-.845h.066c.088.691-.066,1.438-.724,1.646s-1.1-.373-1.339-1.1C139.387,130.3,139.464,130.107,139.6,130.173Z" transform="translate(-57.994 -109.385)"/><path class="d" d="M132.8,140.191c.274.252.56.615.966.636a2.908,2.908,0,0,0,1.207-.318s.077,0,0,.055a1.525,1.525,0,0,1-1.427.658,1.229,1.229,0,0,1-.911-.988S132.761,140.147,132.8,140.191Z" transform="translate(-58.655 -108.375)"/><path class="d" d="M136.978,138.247a4.73,4.73,0,0,1-1.624,1.69,2.195,2.195,0,0,1-1.262.307c-.933-.1-1.1-.933-1.01-1.657a4.731,4.731,0,0,1,.241-1.1A6,6,0,0,0,136.978,138.247Z" transform="translate(-58.614 -108.636)"/><path class="o" d="M135.353,139.841a2.195,2.195,0,0,1-1.262.307c-.933-.1-1.1-.933-1.01-1.657A2.195,2.195,0,0,1,135.353,139.841Z" transform="translate(-58.614 -108.54)"/><path class="d" d="M137.12,137.09s.373,1.668.439,2.458c0,.077-.187.132-.461.165h0a3.775,3.775,0,0,1-3.786-1.1c-.066-.066,0-.165.11-.121a5.674,5.674,0,0,0,3.523.713c0-.23-.724-2.831-.6-2.853a6.727,6.727,0,0,1,1.844.263c-.68-3.49-1.9-6.848-2.524-10.326a.11.11,0,0,1,.208-.066,57.413,57.413,0,0,1,3.182,10.974C139.128,137.661,137.449,137.2,137.12,137.09Z" transform="translate(-58.592 -109.74)"/><path class="d" d="M117.471,136.683c2.678,0,2.776-5.662,2.776-5.662s5.4-.472,6.464-8.406a11.961,11.961,0,0,1-1.8,6.584s9.427-1.877,12.708-10.206c0,0-1.229,4.2-2.6,5.783a11.193,11.193,0,0,0,5.542-4.905s2.085,4.39,3.49,5.6c0,0-1.92-16.614-17.185-13.432,0,0-9.6,1.525-12.368,9.492S117.471,136.683,117.471,136.683Z" transform="translate(-60.495 -111.155)"/><path class="m" d="M116.661,140.473a3.193,3.193,0,0,0,.779.187,2.707,2.707,0,0,0,1.734-.329,2.82,2.82,0,0,0,.615-.494,3.117,3.117,0,0,0,.6-.944l-1.01-4.39s-3.742-5.1-6.058-3.753S113.874,139.507,116.661,140.473Z" transform="translate(-60.618 -109.315)"/><path class="d" d="M114.05,132.62v.077c1.953.746,3.007,2.513,3.764,4.39a1.558,1.558,0,0,0-2.337-.373.066.066,0,0,0,0,.11,1.734,1.734,0,0,1,1.92.56,8.549,8.549,0,0,1,.944,1.514c.088.176.406.077.329-.121h0C118.692,136.23,116.706,132.818,114.05,132.62Z" transform="translate(-60.465 -109.111)"/><path class="f" d="M116.492,139.084a.757.757,0,0,0,.922.582.768.768,0,1,0-.34-1.492.746.746,0,0,0-.582.911Z" transform="translate(-60.229 -108.573)"/><path class="f" d="M115,137.99a.538.538,0,1,0,.063-.415A.538.538,0,0,0,115,137.99Z" transform="translate(-60.374 -108.653)"/><path class="d" d="M143.74,232.725l36.181,5.256L194.2,187.776l-36.181-5.256Z" transform="translate(-57.574 -104.251)"/><path class="g" d="M145.36,232.966l36.181,5.256,14.277-50.205-36.181-5.267Z" transform="translate(-57.416 -104.229)"/><path class="f" d="M173.633,206.977a3.973,3.973,0,0,1-4.335,2.963,3.215,3.215,0,0,1-2.7-3.994,3.962,3.962,0,0,1,4.335-2.963,3.2,3.2,0,0,1,2.7,3.994Z" transform="translate(-55.358 -102.262)"/><path class="m" d="M110.863,157.459C100.23,171.845,79.928,205.9,86.721,213.425c11.2,12.324,38.145,22.76,46.54,25.042,3.621.988,15.736-25.5,12.3-27.566-4.137-2.469-32.987-11.3-32.921-13.761,0-1.383,3.051-13.07,5.487-28.049C121.069,151.686,115.933,150.6,110.863,157.459Z" transform="translate(-63.259 -107.074)"/><path class="m" d="M128.282,205.071s10.864-3.479,18.085-5.421c4.027-1.1,11.095-2.337,14.42-1.778,4.971.834,25.24,7.484,23.714,12.433-1.372,4.477-18.041-3.446-18.041-3.446s17.558,6.507,14.9,11.588-20.291-6.365-20.291-6.365,17.865,7.089,14.266,11.907c-2.678,3.643-19.248-5.838-19.248-5.838s15.363,6.2,12.719,10.063c-2.864,4.269-18.71-3.523-18.71-3.523-8.252,8.713-15.736,9.481-21.136,9.394C127.711,234.064,128.282,205.071,128.282,205.071Z" transform="translate(-59.092 -102.77)"/><path class="d" d="M157.676,203.64c2.085.691,4.2,1.372,6.222,2.25s4.005,1.811,5.937,2.875a37.4,37.4,0,0,1,7.111,4.828c-4.115-3.051-11.292-6.288-13.311-7.155s-3.984-1.855-6-2.722C157.588,203.7,157.621,203.618,157.676,203.64Z" transform="translate(-56.223 -102.195)"/><path class="d" d="M154.676,210.23c2.634,1,5.278,1.888,7.857,3.007s4.916,2.381,7.4,3.665c.2.1.077.165-.121.077-2.535-1.185-4.971-2.085-7.517-3.237s-5.059-2.4-7.682-3.457C154.61,210.274,154.643,210.219,154.676,210.23Z" transform="translate(-56.515 -101.553)"/><path class="d" d="M151.1,215.42a62.85,62.85,0,0,1,11.654,5.487c.187.11,0,.187-.165.088-3.841-1.909-6.848-3.424-11.544-5.487C151,215.53,151,215.4,151.1,215.42Z" transform="translate(-56.865 -101.048)"/><path class="e" d="M84.22,208.569l29.509-12.005a278.125,278.125,0,0,0,5.487-30.529c1.613-14.7-2.261-18.5-12.631-3.215S85.361,197.551,84.22,208.569Z" transform="translate(-63.37 -107.123)"/><path class="f" d="M105.941,161.516a5.917,5.917,0,0,1-.351-.988l.4-.549a6.025,6.025,0,0,1-.044,1.536Z" transform="translate(-61.289 -106.446)"/><path class="f" d="M106.075,180.25a8.647,8.647,0,0,0,.625,4.39,7.8,7.8,0,0,0,0-2.195A7.506,7.506,0,0,0,106.075,180.25Z" transform="translate(-61.247 -104.472)"/><path class="f" d="M103.39,194.45a7.878,7.878,0,0,0,2.195,0,7.428,7.428,0,0,0,2.129-.593,7.419,7.419,0,0,0-2.195,0,7.507,7.507,0,0,0-2.129.593Z" transform="translate(-61.503 -103.155)"/><path class="f" d="M99.728,172.837a7.429,7.429,0,0,1-2.129.593H97.27l.362-.6a7.058,7.058,0,0,1,2.1.011Z" transform="translate(-62.099 -105.202)"/><path class="f" d="M116.235,157.73a8.11,8.11,0,0,0-1.547,1.58,7.9,7.9,0,0,0-1.1,1.931,7.814,7.814,0,0,0,1.547-1.58,7.9,7.9,0,0,0,1.1-1.931Z" transform="translate(-60.51 -106.665)"/><path class="f" d="M98.7,182.76a7.813,7.813,0,0,0-1.547,1.58,7.562,7.562,0,0,0-1.1,1.931,7.869,7.869,0,0,0,1.547-1.591,8.045,8.045,0,0,0,1.1-1.92Z" transform="translate(-62.217 -104.228)"/><path class="f" d="M96.312,199.135a7.868,7.868,0,0,0-1.591-1.547,7.682,7.682,0,0,0-1.92-1.1,7.814,7.814,0,0,0,1.58,1.547A7.9,7.9,0,0,0,96.312,199.135Z" transform="translate(-62.534 -102.891)"/><path class="f" d="M109.722,170.915a7.8,7.8,0,0,0-1.58-1.547,7.592,7.592,0,0,0-1.931-1.1,8.615,8.615,0,0,0,3.512,2.645Z" transform="translate(-61.228 -105.639)"/><path class="d" d="M116.386,173.327a15.967,15.967,0,0,0-1.1,2.656c-.1.3-.2.6-.307.911.263-1.7.5-3.413.735-5.114,0-.121-.154-.165-.176,0-.746,3.852-4.181,21.948-4.39,22.891-.077,0-1,.527-1.1.527s0,.187.066.143,1.185-.527,1.185-.538c.373-.823,3.084-14.639,3.292-16.318,0-.077.077-.154.1-.219.1-.241.187-.483.274-.724.165-.439.318-.889.472-1.328a19.754,19.754,0,0,0,.856-2.809Z" transform="translate(-60.858 -105.308)"/><path class="d" d="M112.95,189.68a29.627,29.627,0,0,0-3.457,1.021c-1.1.362-2.294.7-3.435,1.1-2.195.724-4.39,1.5-6.584,2.3a129.638,129.638,0,0,0-12.861,5.366c-.088,0,0,.187.077.154,4.444-1.547,8.779-3.292,13.234-4.96l6.518-2.414,3.292-1.24a34.3,34.3,0,0,0,3.292-1.207A.083.083,0,0,0,112.95,189.68Z" transform="translate(-63.14 -103.554)"/></g><g transform="translate(70.485 253.638)"><rect class="a" width="316.77" height="13.256" transform="translate(0)"/><rect class="c" width="307.278" height="5.487" transform="translate(4.741 13.256)"/><rect class="a" width="27.632" height="4.565" transform="translate(19.511 127.274)"/><path class="a" d="M166.1,468.158h-2.985l-24.34-106.731-1.394-6.079-4.368-19.16-1.624-7.144-6.123-26.809-2.14-9.394h10.634l1.723,9.394,1.141,6.156.757,4.1,4.368,23.692,1.4,7.627Z" transform="translate(-103.97 -274.097)"/><path class="h" d="M133.764,292.84l1.723,9.394H125.27l-2.14-9.394Z" transform="translate(-103.97 -274.097)"/><path class="h" d="M142.424,342.433l-4.379,17.613-1.394-6.079-4.368-19.16-1.624-7.144,5.235-20.653.757,4.1,4.368,23.692Z" transform="translate(-103.236 -272.717)"/><path class="a" d="M152.922,292.84l-2.14,9.394-7.747,33.953-4.368,19.16L112.934,468.158H109.96L134.3,336.187l4.368-23.692,1.887-10.261,1.734-9.394Z" transform="translate(-105.252 -274.097)"/><path class="h" d="M150.207,292.84l-2.14,9.394H137.84l1.734-9.394Z" transform="translate(-102.537 -274.097)"/><rect class="a" width="27.632" height="4.565" transform="translate(269.44 127.274)"/><path class="a" d="M393.854,468.158h-2.985l-24.34-106.731-1.383-6.079-4.379-19.16-1.624-7.144-6.123-26.809-2.14-9.394h10.634l1.734,9.394,1.13,6.156.768,4.1,4.357,23.692,1.4,7.627Z" transform="translate(-81.791 -274.097)"/><path class="h" d="M361.514,292.84l1.734,9.394H353.02l-2.14-9.394Z" transform="translate(-81.791 -274.097)"/><path class="h" d="M370.174,342.433,365.8,360.046l-1.383-6.079-4.378-19.16-1.624-7.144,5.235-20.653.768,4.1,4.357,23.692Z" transform="translate(-81.058 -272.717)"/><path class="a" d="M380.672,292.84l-2.14,9.394-7.747,33.953-4.357,19.16L340.684,468.158H337.71l24.34-131.971,4.379-23.692,1.887-10.261,1.723-9.394Z" transform="translate(-83.074 -274.097)"/><path class="h" d="M377.956,292.84l-2.14,9.394H365.6l1.723-9.394Z" transform="translate(-80.358 -274.097)"/></g><g transform="translate(233.314 212.65)"><rect class="c" width="61.914" height="2.776" transform="translate(40.417 38.211)"/><rect class="h" width="31.166" height="2.776" transform="translate(40.417 38.211)"/><path class="c" d="M322.285,279.4H261.94l-7.89-40.987h60.345Z" transform="translate(-254.05 -238.41)"/><path class="h" d="M289.144,257.416a3.292,3.292,0,0,1-3.358,3.665,4.082,4.082,0,0,1-3.994-3.665,3.292,3.292,0,0,1,3.358-3.676,4.1,4.1,0,0,1,3.994,3.676Z" transform="translate(-251.351 -236.917)"/></g><g transform="translate(371.955 321.303)"><path class="e" d="M439.775,366.519c-12.291,16.647-25.108,35.972-28.236,56.855,0,.307.472.417.549.1a123.814,123.814,0,0,1,5.443-16.713c8.088-2.195,16.022-4.049,20.258-12.071,4.335-8.252,3.786-19.007,2.963-27.983C440.686,366.223,440.028,366.2,439.775,366.519Z" transform="translate(-377.354 -334.607)"/><path class="d" d="M417.1,406.111c5.487-12.4,12.62-24.845,21.629-35.028.055-.077.154,0,.1.1-5.9,7.254-10.381,15.155-14.76,23.2,4.071-4.126,8.527-7.835,12.389-12.214.066-.088.187,0,.121.121-3.83,4.6-8.011,9.591-13,12.993q-2.008,3.709-4.049,7.418c.329-.187.68-.362,1.021-.527.066,0,.121.055.055.088-.384.2-.757.4-1.152.56-.647,1.174-1.284,2.348-1.953,3.523C417.354,406.627,416.992,406.4,417.1,406.111Z" transform="translate(-376.815 -334.145)"/><path class="d" d="M420.856,399.65a73.62,73.62,0,0,0,9.437-6.31c.077,0,.2.055.11.121a49.548,49.548,0,0,1-9.383,6.42C420.834,399.957,420.7,399.727,420.856,399.65Z" transform="translate(-376.454 -331.975)"/><path class="e" d="M410.328,423.081a.23.23,0,0,0,.45,0c.066-6.881,0-13.783.11-20.7,1.756-3.545,5.542-5.487,8.165-8.362a36.464,36.464,0,0,0,4.905-6.837,48.953,48.953,0,0,0,5.7-18.963c.724-7.353-2.063-31.627-5.169-30.782-1.613.439-6.815,12.455-8.186,16.461A114.54,114.54,0,0,0,411.4,374.05C408.891,390.182,409.1,406.8,410.328,423.081Z" transform="translate(-377.559 -337.42)"/><path class="d" d="M410.207,393.042h0c.384-8.691,2.337-17.481,4.17-25.92,1.975-9.086,4.291-17.646,8.966-25.756a.133.133,0,0,1,.23.132,96.015,96.015,0,0,0-7.2,19.753c.318-.494.691-.955,1.021-1.416.132-.187.428,0,.307.176a13.033,13.033,0,0,1-1.471,2.063h-.055c-1.613,6.5-2.765,13.169-3.753,19.753.066-.077.143-.176.219-.252s.132,0,.1.077-.263.439-.4.658c-.494,3.369-.955,6.727-1.427,10.052,5.992-5.125,11.105-11.16,13.992-18.6h.066c-2.831,7.682-7.287,14.573-14.145,19.248-.132.9-.252,1.8-.384,2.689,0,.187-.318.143-.318,0,0-.79,0-1.58.066-2.381a.187.187,0,0,1,.011-.274Z" transform="translate(-377.492 -337.043)"/><path class="d" d="M412.782,378.869c4.576-6.837,8.856-13.465,12.2-21.026,0-.077.176,0,.143.066-2.82,7.506-6.771,15.111-12.071,21.135C412.9,379.121,412.683,378.967,412.782,378.869Z" transform="translate(-377.236 -335.435)"/><path class="d" d="M418.322,357.155c1.9-3.347,3.9-6.584,5.684-10.041,0-.1.176,0,.143.088a53.011,53.011,0,0,1-5.487,10.129.191.191,0,1,1-.34-.176Z" transform="translate(-376.696 -336.48)"/><path class="d" d="M417.65,357.59v0Z" transform="translate(-376.759 -335.456)"/><path class="e" d="M407.7,402.274a70.142,70.142,0,0,1-1.613,13.542c.077.494.143.977.219,1.482a64.622,64.622,0,0,0,2.491-15.1.461.461,0,0,0,0-.461h0a100.026,100.026,0,0,0-1.514-20.455c-2.129-12.631-6.782-24.768-15.594-34.238a.637.637,0,0,0-.977.209c-3.556,9.042-2.316,19.83.713,28.85a53.171,53.171,0,0,0,6.946,13.706C401.4,394.033,405.252,397.632,407.7,402.274Z" transform="translate(-379.594 -336.498)"/><path class="d" d="M392.352,350.88c8.351,13.553,14.167,29.629,14.87,45.64,0,.285-.461.362-.5.066-.2-1.438-.417-2.864-.647-4.28h0c-3.457-3.292-7-6.8-9.481-10.974,0-.077.066-.165.121-.1a115.4,115.4,0,0,0,9.207,10.019q-.889-5.3-2.14-10.458c-.23-.252-.45-.516-.669-.779s.1-.417.252-.241l.2.219a120.138,120.138,0,0,0-4.39-13.86c-2.118-2.535-4.5-4.73-6.047-7.791,0-.066.066-.132.11-.055,1.24,1.745,2.447,3.5,3.863,5.125.56.647,1.185,1.251,1.767,1.877A107.171,107.171,0,0,0,392,351.023a.19.19,0,1,1,.351-.143Z" transform="translate(-379.258 -336.121)"/><path class="d" d="M393.878,366.115c2.7,3.632,5.772,7.1,8.285,10.853.077.11-.088.219-.176.132a55.769,55.769,0,0,1-8.3-10.886C393.625,366.1,393.8,365.994,393.878,366.115Z" transform="translate(-379.094 -334.631)"/><path class="d" d="M401.763,376.773l.121.11c.077.077,0,.209-.121.121l-.121-.11C401.565,376.816,401.686,376.685,401.763,376.773Z" transform="translate(-378.321 -333.591)"/><path class="e" d="M380.4,374.694a41.569,41.569,0,0,0,8.779,20.675,21.948,21.948,0,0,0,7.144,5.575c3.095,1.536,6.332,3.292,9.536,4.554a62.175,62.175,0,0,1,3.38,11.994l.307-1.1c-2.052-17.657-13.476-32.746-28.093-42.436a.7.7,0,0,0-1.054.735Z" transform="translate(-380.388 -333.872)"/><path class="d" d="M385,379.389a.122.122,0,0,1,.143-.2A59.8,59.8,0,0,1,403.8,402.149a.209.209,0,0,1-.362.208c-.68-1.185-1.372-2.348-2.074-3.479h0c-3.292-.637-6.5-2.985-8.966-5.213-.077-.055,0-.154.1-.1a20.589,20.589,0,0,0,4.214,2.974c1.361.68,2.82,1.1,4.236,1.679-1.229-1.964-2.524-3.852-3.863-5.673a38.912,38.912,0,0,1-10.03-5.641c-.088-.066,0-.219.1-.154a101.361,101.361,0,0,0,9.317,4.982,80.456,80.456,0,0,0-6.584-7.682c-1.1-.6-2.282-1.207-3.38-1.844a.1.1,0,0,1,.077-.176,12.072,12.072,0,0,1,2.59,1.284C387.813,381.99,386.453,380.673,385,379.389Z" transform="translate(-379.943 -333.354)"/><path class="d" d="M385.292,384.931a3.97,3.97,0,0,1,.56.4s0,.121-.066.088a3.148,3.148,0,0,1-.593-.329.091.091,0,1,1,.1-.153Z" transform="translate(-379.924 -332.795)"/><path class="g" d="M431.334,452.421H391.28l3.237-36.477.713-8.044h32.153l.713,8.044Z" transform="translate(-379.327 -330.557)"/><path class="d" d="M427.81,415.944H394.23l.713-8.044H427.1Z" transform="translate(-379.04 -330.557)"/><rect class="g" width="35.994" height="7.956" transform="translate(13.983 71.724)"/></g></g></svg>