<svg xmlns="http://www.w3.org/2000/svg" width="22.843" height="25.991" viewBox="0 0 22.843 25.991">
    <defs>
        <style>.a{fill:#6b6b6b;}</style>
    </defs>
    <path d="M50.289,13.344v-2.43A7.882,7.882,0,0,0,44.7,3.384v-1.1a2.284,2.284,0,1,0-4.569,0v1.1a7.882,7.882,0,0,0-5.584,7.53v2.43a11.956,11.956,0,0,1-3.342,8.313.761.761,0,0,0,.55,1.288h6.93a3.808,3.808,0,0,0,7.461,0h6.93a.761.761,0,0,0,.55-1.288A11.956,11.956,0,0,1,50.289,13.344ZM41.659,2.284a.761.761,0,1,1,1.523,0v.8c-.251-.024-.5-.037-.761-.037s-.511.013-.761.037Zm.761,22.183a2.288,2.288,0,0,1-2.153-1.523h4.307a2.288,2.288,0,0,1-2.153,1.523ZM33.4,21.422a13.463,13.463,0,0,0,2.674-8.078v-2.43a6.345,6.345,0,1,1,12.691,0v2.43a13.463,13.463,0,0,0,2.674,8.078Z" transform="translate(-30.999)"/>
</svg>