<svg xmlns="http://www.w3.org/2000/svg" width="16.94" height="16.94" viewBox="0 0 16.94 16.94"><defs><style>.a{fill:#3fae2b;}</style></defs><path class="a" d="M10.321,2A8.126,8.126,0,0,0,2,10.321a8.563,8.563,0,0,0,8.321,8.619,9.037,9.037,0,0,0,8.619-8.619A8.563,8.563,0,0,0,10.321,2m0,15.157a7.122,7.122,0,0,1-6.835-6.835,7.122,7.122,0,0,1,6.835-6.835,7.122,7.122,0,0,1,6.835,6.835,7.122,7.122,0,0,1-6.835,6.835m4.161-10.4L8.835,12.4,6.458,10.024,5.269,11.213l3.566,3.269,6.835-6.538Z" transform="translate(-2 -2)"/></svg>