<svg xmlns="http://www.w3.org/2000/svg" width="92.282" height="92.283" viewBox="0 0 92.282 92.283"><defs><style>.a{fill:#333;}</style></defs><g transform="translate(-768.06 -348.066)"><path class="a" d="M891.486,464.872v7.39a7.828,7.828,0,0,0-.436,2.585,47.523,47.523,0,0,1-5.639,16.559,49.75,49.75,0,0,1-5.678,7.835,45.865,45.865,0,0,1-28.017,14.94,12.185,12.185,0,0,0-2.947.438h-2.163c-.18-.234-.361-.232-.541,0H844.8a1.338,1.338,0,0,0-1.442,0h-1.8c-.121-.319-.408-.179-.618-.2a54.064,54.064,0,0,1-6.8-1.189,49.592,49.592,0,0,1-11.308-4.442l-2.006-1.187c-1.589-1.119-3.22-2.18-4.7-3.445-.775-.662-1.532-1.343-2.3-2.018-.178-.157-.356-.41-.607-.288-.376.184.018.4.053.591.291,1.589.632,3.169.922,4.759a1.494,1.494,0,0,1-1.17,1.9,1.511,1.511,0,0,1-1.82-1.3c-.192-.784-.341-1.579-.508-2.369a23.4,23.4,0,0,0-.653-3.077c-.32-1.732-.669-3.459-.952-5.2-.221-1.352.6-2.12,1.95-1.875,1.762.321,3.522.653,5.282.98a17.967,17.967,0,0,0,2.851.594c.9.205,1.819.37,2.708.627a1.467,1.467,0,0,1,1.052,1.669,1.509,1.509,0,0,1-1.606,1.269,5.773,5.773,0,0,1-.888-.132q-2.359-.461-4.717-.931l-.116.232a36.674,36.674,0,0,0,7.495,5.688,11.837,11.837,0,0,0,2.413,1.389,35.26,35.26,0,0,0,9.179,3.483,10.006,10.006,0,0,0,2.478.58,35.831,35.831,0,0,0,7.04.8,28.586,28.586,0,0,0,5.818-.3,18.938,18.938,0,0,0,3.962-.6,1.375,1.375,0,0,0,.268-.009q20.835-4.843,30.1-24.122a34.214,34.214,0,0,0,2.982-9.195,19.82,19.82,0,0,0,.685-4.147,40.622,40.622,0,0,0-.39-12.312,14.2,14.2,0,0,0-.644-2.831,36.04,36.04,0,0,0-3.486-9.364c-.382-.8-.734-1.623.059-2.379a1.592,1.592,0,0,1,2.061-.111c.19.3.4.593.568.909a46.262,46.262,0,0,1,4.8,14.769A11.865,11.865,0,0,0,891.486,464.872Zm-75.9,34.511c-.02-.018-.04-.052-.061-.053s-.044.032-.065.05l.09.062Z" transform="translate(-31.144 -74.269)"/><path class="a" d="M810.6,348.066h7.029c.046.2.21.166.352.176a44.865,44.865,0,0,1,8.657,1.532,51.406,51.406,0,0,1,10.026,4.09l2.14,1.271A52.8,52.8,0,0,1,846.2,361a2.086,2.086,0,0,0,.012-1.148c-.281-1.376-.568-2.751-.826-4.131-.233-1.245.215-2.028,1.213-2.2.9-.151,1.584.482,1.828,1.669.168.815.352,1.627.529,2.44a15.2,15.2,0,0,0,.581,2.87c.309,1.672.645,3.34.917,5.018a1.513,1.513,0,0,1-1.943,1.884c-1.644-.3-3.284-.619-4.925-.93a17.078,17.078,0,0,0-2.885-.567c-.935-.205-1.873-.392-2.8-.62a1.553,1.553,0,0,1-1.3-1.766,1.532,1.532,0,0,1,1.793-1.246,6.373,6.373,0,0,1,.71.115c1.352.268,2.7.546,4.058.8.183.035.448.168.569-.07s-.146-.364-.288-.493a37.849,37.849,0,0,0-7.046-5.267,8.629,8.629,0,0,0-1.866-1.061,35.615,35.615,0,0,0-9.51-3.717,14.285,14.285,0,0,0-2.834-.674,40.227,40.227,0,0,0-12.123-.548,21.847,21.847,0,0,0-4.147.641,7.167,7.167,0,0,0-.8.1q-20.84,4.94-30.1,24.255A34.248,34.248,0,0,0,772,385.918a21.913,21.913,0,0,0-.644,4.147,40.261,40.261,0,0,0,.547,12.13,14.128,14.128,0,0,0,.675,2.827,36.013,36.013,0,0,0,3.719,9.513c.388,1.763-.441,2.586-2.165,2.151a3.418,3.418,0,0,1-.8-1.07,46.361,46.361,0,0,1-4.793-14.774,10.523,10.523,0,0,0-.484-2.85v-7.57c.287-.1.169-.349.19-.535a47.831,47.831,0,0,1,5.432-17.852c.126-.2.261-.391.378-.595a46.767,46.767,0,0,1,8.926-11.208,52.6,52.6,0,0,1,9.073-6.566,1.213,1.213,0,0,0,.256-.073,46.107,46.107,0,0,1,15.332-5.059A11.073,11.073,0,0,0,810.6,348.066Z" transform="translate(0 0)"/><path class="a" d="M868.855,444.665a7.205,7.205,0,0,1,1.528,1.651l4.645,8.259,1.371,2.4q2.161,4.088,4.532,8.057a12.3,12.3,0,0,0,1.224,2.174c1.374,1.921,1.407,4.113,1.335,6.348-.052,1.613.009,3.229.02,4.844q0,1.79.005,3.581a4.766,4.766,0,0,1-5.107,5.067l-3.427,0-12.794,0-3.427,0-12.794,0-3.427,0-12.794,0-3.427,0c-2.715-.011-5.43-.049-8.144-.019a6.652,6.652,0,0,1-3.353-.738,7.848,7.848,0,0,1-1.608-1.8,7.571,7.571,0,0,1-.444-2.9c.013-3.172-.013-6.345-.024-9.518a7.515,7.515,0,0,1,1.154-4.5q3.521-6.208,7.042-12.417c1.593-2.815,3.2-5.622,4.756-8.459a4.887,4.887,0,0,1,4.681-2.744c2.371.024,4.743-.015,7.115-.026l3.428,0,12.794-.005,3.428.005c2.812.01,5.625.045,8.438.017A6.536,6.536,0,0,1,868.855,444.665Zm8.838,27.017a24.24,24.24,0,0,0-3.6,0c-4.267-.051-8.535-.082-12.8.016a24.029,24.029,0,0,0-3.423-.007c-4.266-.072-8.532-.085-12.8.007a24.025,24.025,0,0,0-3.423-.007c-4.266-.072-8.532-.085-12.8.007a24.459,24.459,0,0,0-3.423-.008c-2.423-.016-4.845-.042-7.268-.04-.739,0-1.7-.319-2.158.125s-.069,1.422-.149,2.158c-.067.612.122.828.772.806,1.465-.051,2.933,0,4.4-.023a2.356,2.356,0,0,1,1.513.431c.826,1.544.191,2.627-1.553,2.654-.562.008-1.123.025-1.685.038-.983-.013-1.966-.009-2.949-.046-.4-.015-.508.132-.5.513.032.983.028,1.966.039,2.95-.011.326-.036.653-.029.978.023,1.022.394,1.44,1.456,1.669l12.79.005,3.251.006,12.971-.006,3.251.006,12.971-.006,3.251.006c.539.01,1.079.03,1.619.03,3.723,0,7.446.008,11.168-.008,1.256-.005,1.8-.572,1.815-1.824s0-2.522.013-3.783c0-.355-.047-.541-.478-.536-2.85.031-5.7.038-8.552.052l-3.426-.005-12.8.005-3.426-.005-12.8.005-3.426-.005c-2.626-.013-5.252-.02-7.878-.04-1.717-.013-2.367-1.07-1.6-2.589a2.253,2.253,0,0,1,1.668-.495c3.864,0,7.729-.029,11.593-.047a25.3,25.3,0,0,0,3.437.013c4.262.059,8.523.084,12.784-.013a25.331,25.331,0,0,0,3.437.013h12.6a25.916,25.916,0,0,0,3.571.007c1.555.011,3.111,0,4.666.045.544.016.658-.194.63-.675a17.817,17.817,0,0,1,0-1.795c.018-.424-.048-.668-.568-.628C879.13,471.687,878.41,471.668,877.693,471.682Zm-54.681-13.855-4.337,7.715-1.748,3.014c1.956,0,3.693.008,5.429,0,2.28-.014,4.56-.043,6.84-.065a18.906,18.906,0,0,0,3.442.01c2.25.019,4.5.053,6.75.052,2.009,0,4.019-.04,6.028-.063a18.942,18.942,0,0,0,3.442.01c2.25.019,4.5.054,6.751.053,2.009,0,4.019-.04,6.029-.062a19,19,0,0,0,3.443.01,3.521,3.521,0,0,0,.443.054q6.621,0,13.241-.006a.43.43,0,0,0,.457-.214l-5.259-9.228a15.5,15.5,0,0,0-1.286-2.277l-4.391-7.836c-.479-.86-.719-1.972-2.044-1.941l-12.882.007-3.431-.006-12.791.006-3.43-.007c-1.227-.01-2.455-.026-3.682-.028a1.518,1.518,0,0,0-1.414.792Q825.8,452.818,823.011,457.826Z" transform="translate(-33.928 -72.806)"/><path class="a" d="M923.185,523.873a1.5,1.5,0,0,1-1.493-1.575,1.532,1.532,0,0,1,1.507-1.484,1.565,1.565,0,0,1,1.555,1.545A1.535,1.535,0,0,1,923.185,523.873Z" transform="translate(-116.698 -131.22)"/><path class="a" d="M982.241,496.664c-.182,1.271-.594,1.621-1.924,1.633-1.074-.57-1.423-1.389-.958-2.242a1.537,1.537,0,0,1,2.016-.65A1.676,1.676,0,0,1,982.241,496.664Z" transform="translate(-160.351 -111.804)"/><path class="a" d="M1019.385,469.539a1.969,1.969,0,0,1,1.276,1.44,1.692,1.692,0,0,1-1.454,1.675,1.634,1.634,0,0,1-1.671-1.318C1017.651,470.039,1018.051,469.65,1019.385,469.539Z" transform="translate(-189.502 -92.271)"/><path class="a" d="M975.844,471.171a1.5,1.5,0,0,1-1.559,1.509,1.525,1.525,0,0,1-1.5-1.486,1.578,1.578,0,0,1,1.526-1.578A1.555,1.555,0,0,1,975.844,471.171Z" transform="translate(-155.506 -92.329)"/><path class="a" d="M928.878,495.365a1.765,1.765,0,0,1,2.136.743c.22,1.713-.423,2.351-2.121,2.108a1.764,1.764,0,0,1-.745-2.117Z" transform="translate(-121.527 -111.806)"/><path class="a" d="M867.122,522.357a1.508,1.508,0,0,1-1.562,1.512,1.533,1.533,0,0,1-1.5-1.492,1.559,1.559,0,0,1,1.527-1.571A1.541,1.541,0,0,1,867.122,522.357Z" transform="translate(-72.921 -131.213)"/><path class="a" d="M879.9,496.759a1.486,1.486,0,0,1-1.565,1.5,1.523,1.523,0,0,1-1.5-1.492,1.584,1.584,0,0,1,1.537-1.57A1.547,1.547,0,0,1,879.9,496.759Z" transform="translate(-82.626 -111.759)"/><path class="a" d="M937.458,471.593a2.339,2.339,0,0,1-1.063,1.092,1.659,1.659,0,0,1-1.781-.725,1.535,1.535,0,0,1,1.554-2.3,1.48,1.48,0,0,1,1.241,1.137A3.932,3.932,0,0,1,937.458,471.593Z" transform="translate(-126.339 -92.345)"/><path class="a" d="M890.248,472.447c-.768-.95-.808-1.731-.119-2.379.661-.623,1.4-.565,2.315.183a1.58,1.58,0,0,1-2.2,2.2Z" transform="translate(-92.353 -92.349)"/><path class="a" d="M987.061,520.813a1.531,1.531,0,0,1,1.557,1.525,1.49,1.49,0,0,1-1.443,1.53,1.534,1.534,0,0,1-1.619-1.461A1.566,1.566,0,0,1,987.061,520.813Z" transform="translate(-165.209 -131.218)"/><path class="a" d="M1031.972,498.256a1.485,1.485,0,0,1-1.555-1.508,1.549,1.549,0,0,1,1.535-1.556,1.586,1.586,0,0,1,1.528,1.49A1.534,1.534,0,0,1,1031.972,498.256Z" transform="translate(-199.287 -111.758)"/><path class="a" d="M1043.523,523.456a1.569,1.569,0,0,1,.022-2.116,1.594,1.594,0,0,1,2.114-.2c.672.926.713,1.626.135,2.262C1045.239,524.017,1044.458,524.034,1043.523,523.456Z" transform="translate(-208.938 -131.238)"/></g></svg>