<svg xmlns="http://www.w3.org/2000/svg" width="15.105" height="15.105" viewBox="0 0 15.105 15.105">
    <defs>
        <style>
            .ico-editar {
                fill: #666;
            }
        </style>
    </defs>
    <path class="ico-editar"
        d="M4.678,3A1.672,1.672,0,0,0,3,4.678V16.426A1.683,1.683,0,0,0,4.678,18.1H16.426A1.683,1.683,0,0,0,18.1,16.426V10.552H16.426v5.874H4.678V4.678h5.874V3H4.678M15.4,3.839a.58.58,0,0,0-.4.168L13.976,5.022l2.1,2.1L17.1,6.1a.567.567,0,0,0,0-.8l-1.3-1.3a.561.561,0,0,0-.394-.168M13.38,5.618,7.2,11.811v2.1h2.1l6.185-6.193Z"
        transform="translate(-3 -3)" />
</svg>