<svg xmlns="http://www.w3.org/2000/svg" width="12.371" height="12.365" viewBox="0 0 12.371 12.365"><defs><style>.a{fill:#333;}</style></defs><g transform="translate(0 0)"><path class="a" d="M612.4,616.526a.328.328,0,0,1-.328-.328V614.3A1.307,1.307,0,0,1,613.377,613h1.979a.328.328,0,0,1,0,.656h-1.979a.65.65,0,0,0-.65.649V616.2A.328.328,0,0,1,612.4,616.526Z" transform="translate(-612.072 -613)"/></g><g transform="translate(8.758 0)"><path class="a" d="M3288.566,616.526a.328.328,0,0,1-.328-.328V614.3a.65.65,0,0,0-.65-.649h-1.979a.328.328,0,0,1,0-.656h1.979a1.306,1.306,0,0,1,1.305,1.305V616.2A.327.327,0,0,1,3288.566,616.526Z" transform="translate(-3285.281 -613)"/></g><g transform="translate(8.758 8.49)"><path class="a" d="M3287.588,3208.19h-1.979a.328.328,0,1,1,0-.656h1.979a.65.65,0,0,0,.65-.649v-2.242a.328.328,0,1,1,.656,0v2.242A1.306,1.306,0,0,1,3287.588,3208.19Z" transform="translate(-3285.281 -3204.315)"/></g><g transform="translate(0 8.49)"><path class="a" d="M615.357,3208.19h-1.979a1.307,1.307,0,0,1-1.305-1.3v-2.242a.328.328,0,1,1,.656,0v2.242a.65.65,0,0,0,.65.649h1.979a.328.328,0,1,1,0,.656Z" transform="translate(-612.072 -3204.315)"/></g><g transform="translate(2.957 3.9)"><path class="a" d="M1514.9,1804.953a.328.328,0,0,1-.328-.328v-.989a.328.328,0,1,1,.656,0v.989A.328.328,0,0,1,1514.9,1804.953Z" transform="translate(-1514.575 -1803.308)"/></g><g transform="translate(8.802 3.9)"><path class="a" d="M3298.9,1804.953a.328.328,0,0,1-.328-.328v-.989a.328.328,0,1,1,.656,0v.989A.328.328,0,0,1,3298.9,1804.953Z" transform="translate(-3298.572 -1803.308)"/></g><g transform="translate(5.206 3.9)"><path class="a" d="M2201.716,1807.212h-.382a.328.328,0,0,1,0-.656h.382s.287-.01.287-.365v-2.555a.328.328,0,1,1,.656,0v2.555A.974.974,0,0,1,2201.716,1807.212Z" transform="translate(-2201.006 -1803.308)"/></g><g transform="translate(3.893 8.797)"><path class="a" d="M1802.71,3299.437a3.119,3.119,0,0,1-2.192-.755.328.328,0,0,1,.469-.458,2.938,2.938,0,0,0,3.447,0,.328.328,0,0,1,.469.458A3.119,3.119,0,0,1,1802.71,3299.437Z" transform="translate(-1800.425 -3298.125)"/></g></svg>