<svg xmlns="http://www.w3.org/2000/svg" width="6.877" height="6.877" viewBox="0 0 6.877 6.877"><defs><style>.a{fill:#acacac;}</style></defs><g transform="translate(0 0)"><path class="a" d="M1632.541,171.381a.75.75,0,0,1-.532-.22l-5.374-5.374a.752.752,0,0,1,1.063-1.063l5.374,5.374a.752.752,0,0,1-.532,1.283Z" transform="translate(-1626.416 -164.504)"/><path class="a" d="M1627.167,171.381a.752.752,0,0,1-.532-1.283l5.374-5.374a.752.752,0,0,1,1.063,1.063l-5.374,5.374A.751.751,0,0,1,1627.167,171.381Z" transform="translate(-1626.416 -164.504)"/></g></svg>