<svg xmlns="http://www.w3.org/2000/svg" width="17.835" height="25.991" viewBox="0 0 17.835 25.991"><defs><style>.a{fill:#666;}</style></defs><path class="a" d="M95.3,6.749a.761.761,0,0,0-1.413.394,1.685,1.685,0,1,1-3.371,0V.761a.761.761,0,0,0-1.3-.538,37.251,37.251,0,0,0-4.173,5.214A29.586,29.586,0,0,0,82.171,10.8a17,17,0,0,0-1.329,6.272,8.917,8.917,0,1,0,17.835,0C98.677,13.926,97.542,10.452,95.3,6.749ZM89.759,24.468a7.4,7.4,0,0,1-7.394-7.395C82.365,13.06,84.5,9,86.3,6.306A38.254,38.254,0,0,1,89,2.736V7.143a3.207,3.207,0,0,0,5.829,1.848,17.489,17.489,0,0,1,2.327,8.082A7.4,7.4,0,0,1,89.759,24.468Z" transform="translate(-80.842 0)"/><path class="a" d="M155.646,252.674h-2.969a.884.884,0,0,0,0,1.726h1.3l-2.961,3.687-1.609-2a.6.6,0,0,0-.98,0l-1.575,1.961a1.019,1.019,0,0,0,0,1.221.6.6,0,0,0,.98,0l1.085-1.351,1.609,2a.6.6,0,0,0,.98,0l3.451-4.3v1.614a.71.71,0,1,0,1.386,0v-3.7A.792.792,0,0,0,155.646,252.674Z" transform="translate(-142.852 -240.408)"/></svg>