<svg xmlns="http://www.w3.org/2000/svg" width="19.829" height="19.83" viewBox="0 0 19.829 19.83"><defs><style>.a{fill:#f44336;}</style></defs><path class="a" d="M18.929,9.915l.87-2.269a.62.62,0,0,0-.188-.7L17.724,5.413l-.382-2.4a.619.619,0,0,0-.516-.514l-2.4-.382L12.9.229a.621.621,0,0,0-.7-.188L9.925.912,7.656.042a.618.618,0,0,0-.7.188L5.424,2.118l-2.4.382a.621.621,0,0,0-.514.514l-.382,2.4L.24,6.944a.62.62,0,0,0-.188.7l.87,2.269-.87,2.269a.618.618,0,0,0,.188.7l1.887,1.528.382,2.4a.619.619,0,0,0,.514.516l2.4.382L6.953,19.6a.617.617,0,0,0,.7.188l2.268-.869,2.269.87a.62.62,0,0,0,.7-.19l1.528-1.886,2.4-.382a.621.621,0,0,0,.516-.516l.382-2.4,1.886-1.528a.619.619,0,0,0,.188-.7Z" transform="translate(-0.01 0)"/></svg>